<svg width="42" height="41" viewBox="0 0 42 41" fill="none" xmlns="http://www.w3.org/2000/svg">
<path fill-rule="evenodd" clip-rule="evenodd" d="M10.961 19.9335L9.90132 14.0982L8.56817 6.75369C8.49584 6.35665 8.76324 5.9764 9.16543 5.90544L36.7462 1.01148C37.1479 0.940525 37.532 1.20486 37.6038 1.60136L38.3687 5.81227" fill="#043A7A"/>
<path fill-rule="evenodd" clip-rule="evenodd" d="M39.7218 20.6646H11.6998C11.2922 20.6646 10.9612 20.3374 10.9612 19.9333V6.54277C10.9612 6.13977 11.2922 5.81206 11.6998 5.81206H39.7218C40.13 5.81206 40.4615 6.13977 40.4615 6.54277V19.9333C40.4615 20.3374 40.13 20.6646 39.7218 20.6646Z" fill="#043A7A"/>
<path fill-rule="evenodd" clip-rule="evenodd" d="M13.9555 10.2756V16.6217C14.9456 16.6217 15.7478 17.3221 15.7478 18.1855C15.7478 18.2137 15.7401 18.2402 15.7385 18.2689H35.6448C35.6431 18.2402 35.6349 18.2137 35.6349 18.1855C35.6349 17.3221 36.4376 16.6217 37.4278 16.6217C37.4492 16.6217 37.4694 16.6266 37.4908 16.6277V10.2696C37.4694 10.2701 37.4492 10.2756 37.4278 10.2756C36.4376 10.2756 35.6349 9.57518 35.6349 8.71176H15.7478C15.7478 9.57518 14.9456 10.2756 13.9555 10.2756" fill="#043A7A"/>
<path fill-rule="evenodd" clip-rule="evenodd" d="M5.90323 32.7494L10.6298 27.8831C10.6298 27.8831 12.638 25.321 15.7147 25.321H25.7235C25.7235 25.321 27.0594 28.6138 23.6769 30.0974C23.6769 30.0974 28.5032 30.1808 32.5339 27.8852C32.5339 27.8852 37.2731 24.7338 40.461 27.927L31.7367 34.4362C31.7367 34.4362 28.9838 36.3786 24.0194 36.7962C23.5799 36.8325 23.1405 36.8682 22.7027 36.9219L15.9104 37.7533C13.8802 38.002 11.8364 38.1271 9.7909 38.1271H5.90323" fill="#043A7A"/>
<path fill-rule="evenodd" clip-rule="evenodd" d="M1.00011 30.7282H4.05819C5.07682 30.7282 5.90312 31.5776 5.90312 32.6257V37.9292C5.90312 38.9773 5.07682 39.8266 4.05819 39.8266H1.00011" fill="#043A7A"/>
<path d="M1.00011 30.7282H4.05819C5.07682 30.7282 5.90312 31.5776 5.90312 32.6257V37.9292C5.90312 38.9773 5.07682 39.8266 4.05819 39.8266H1.00011M5.90323 32.7494L10.6298 27.8831C10.6298 27.8831 12.638 25.321 15.7147 25.321H25.7235C25.7235 25.321 27.0594 28.6138 23.6769 30.0974C23.6769 30.0974 28.5032 30.1808 32.5339 27.8852C32.5339 27.8852 37.2731 24.7338 40.461 27.927L31.7367 34.4362C31.7367 34.4362 28.9838 36.3786 24.0194 36.7962C23.5799 36.8325 23.1405 36.8682 22.7027 36.9219L15.9104 37.7533C13.8802 38.002 11.8364 38.1271 9.79091 38.1271H5.90323M16.3297 30.0416L23.6765 30.098M39.7218 20.6646H11.6998C11.2922 20.6646 10.9612 20.3374 10.9612 19.9333V6.54277C10.9612 6.13977 11.2922 5.81206 11.6998 5.81206H39.7218C40.13 5.81206 40.4615 6.13977 40.4615 6.54277V19.9333C40.4615 20.3374 40.13 20.6646 39.7218 20.6646Z" stroke="white" stroke-width="1.09804" stroke-linecap="round" stroke-linejoin="round"/>
<path fill-rule="evenodd" clip-rule="evenodd" d="M13.9555 10.2756V16.6217C14.9456 16.6217 15.7478 17.3221 15.7478 18.1855C15.7478 18.2137 15.7401 18.2402 15.7385 18.2689H35.6448C35.6431 18.2402 35.6349 18.2137 35.6349 18.1855C35.6349 17.3221 36.4376 16.6217 37.4278 16.6217C37.4492 16.6217 37.4694 16.6266 37.4908 16.6277V10.2696C37.4694 10.2701 37.4492 10.2756 37.4278 10.2756C36.4376 10.2756 35.6349 9.57518 35.6349 8.71176H15.7478C15.7478 9.57518 14.9456 10.2756 13.9555 10.2756V10.2756Z" stroke="white" stroke-width="1.09804" stroke-linecap="round" stroke-linejoin="round"/>
<path fill-rule="evenodd" clip-rule="evenodd" d="M19.7967 13.4901C19.7967 14.1265 19.275 14.6417 18.6317 14.6417C17.9884 14.6417 17.4668 14.1265 17.4668 13.4901C17.4668 12.8542 17.9884 12.3385 18.6317 12.3385C19.275 12.3385 19.7967 12.8542 19.7967 13.4901ZM33.7757 13.4901C33.7757 14.1265 33.2546 14.6417 32.6107 14.6417C31.9675 14.6417 31.4458 14.1265 31.4458 13.4901C31.4458 12.8542 31.9675 12.3385 32.6107 12.3385C33.2546 12.3385 33.7757 12.8542 33.7757 13.4901Z" fill="#043A7A"/>
<path d="M23.6745 10.5268H27.4367M23.6745 12.3221H27.4367M24.787 10.5268C25.667 10.5268 26.3804 11.3864 26.3804 12.447C26.3804 13.5076 25.667 14.0595 24.787 14.0595H23.6747L26.4161 16.7467" stroke="white" stroke-width="1.09804" stroke-linecap="round" stroke-linejoin="round"/>
<path d="M10.961 19.9335L9.90132 14.0982L8.56817 6.75369C8.49584 6.35665 8.76324 5.9764 9.16543 5.90544L36.7462 1.01148C37.1479 0.940525 37.532 1.20486 37.6038 1.60136L38.3687 5.81227" stroke="white" stroke-width="1.09804" stroke-linecap="round" stroke-linejoin="round"/>
</svg>
