<?xml version="1.0" encoding="UTF-8"?>
<svg width="362px" height="296px" viewBox="0 0 362 296" version="1.1" xmlns="http://www.w3.org/2000/svg" xmlns:xlink="http://www.w3.org/1999/xlink">
    <title>714B6260-1077-4E97-BC57-346FFF43577A</title>
    <defs>
        <linearGradient x1="61.6296226%" y1="56.2448413%" x2="31.9663523%" y2="45.0631714%" id="linearGradient-1">
            <stop stop-color="#ED89AE" offset="0%"></stop>
            <stop stop-color="#F4C0CA" offset="100%"></stop>
        </linearGradient>
        <linearGradient x1="98.4649456%" y1="67.6691537%" x2="11.0855714%" y2="46.2173542%" id="linearGradient-2">
            <stop stop-color="#ED89AE" offset="0%"></stop>
            <stop stop-color="#FACAD4" offset="100%"></stop>
        </linearGradient>
    </defs>
    <g id="Desktop" stroke="none" stroke-width="1" fill="none" fill-rule="evenodd">
        <g id="enter-number/split-copy-2" transform="translate(-112.000000, -98.000000)">
            <g id="Illustration" transform="translate(112.000000, 98.000000)">
                <g id="Group" transform="translate(29.463849, 0.000000)" fill="#D1DBFF" fill-opacity="0.6">
                    <path d="M138.759419,68.8347644 C179.787058,-4.69548496 242.403478,7.83824993 279.489598,39.2658997 C295.979782,53.2403795 306.647267,78.2705243 305.333427,104.271119 C304.318113,124.452373 292.194105,140.907272 279.468922,156.893596 L278.328026,158.324041 C278.137702,158.562269 277.947314,158.800414 277.756896,159.038487 L276.614323,160.466149 C271.283293,167.125356 265.984218,173.745186 261.484018,180.563418 C234.520438,221.419363 244.321983,245.113273 202.159663,270.994428 C111.504704,326.638537 10.9810149,259.707348 2.99346497,216.783598 C-17.5950048,106.077649 97.7317791,142.365014 138.759419,68.8347644 Z M315.903867,163.393919 C320.808372,176.465133 321.017392,210.199468 292.418977,236.349363 C263.813098,262.506723 230.078763,270.389763 240.701458,242.605033 C241.396617,240.787382 242.091916,238.96335 242.789371,237.136174 L243.48762,235.308068 C253.974374,207.874355 265.097535,179.975512 283.662532,162.527979 C304.512277,142.924889 310.999362,150.322704 315.903867,163.393919 Z M43.9464546,27.9489598 C83.9812493,-7.13653994 134.668599,-3.87433497 147.008244,11.5782149 C153.474128,19.6780384 150.59818,30.0842961 146.246114,40.2363817 L145.880194,41.0817455 C145.572694,41.7856337 145.259128,42.487953 144.942133,43.1878461 L144.560259,44.0264982 C144.368668,44.4451871 144.176221,44.862879 143.983487,45.2793888 L143.597805,46.1107771 C143.46923,46.3873445 143.340695,46.6633317 143.212371,46.9386836 L142.828195,47.7627791 C142.189512,49.1329126 141.560287,50.4857946 140.961594,51.8145645 C135.437494,64.0795594 127.024439,77.3672593 115.058044,88.5796892 C97.9631941,104.607044 80.2860743,110.519324 60.9741195,117.305009 C35.2945197,126.322729 18.4086898,128.383069 7.56204493,116.259909 C-3.04571997,104.412954 -0.0298599997,66.4982194 43.9464546,27.9489598 Z" id="Combined-Shape"></path>
                </g>
                <g id="online-food-order-copy" transform="translate(0.000000, 51.319635)">
                    <g id="Layer_33" transform="translate(0.199811, 88.934935)">
                        <g id="Group" transform="translate(0.000000, 0.043140)">
                            <path d="M81.0376267,153.233761 L64.5372621,153.233761 C61.3836088,153.233761 58.8494231,150.699575 58.8494231,147.545922 L59.0746841,126.652969 L86.9507266,126.652969 L86.7254657,147.545922 C86.7254657,150.699575 84.1349648,153.233761 81.0376267,153.233761 Z" id="Path" fill="#8992A2"></path>
                            <path d="M71.4640363,126.652969 C71.4640363,126.652969 63.2420117,65.7198821 48.6563652,46.009549" id="Path" stroke="#8ACBCF" stroke-width="1.48514851" stroke-linecap="round"></path>
                            <path d="M75.6313639,126.652969 C75.6313639,126.652969 81.1502572,81.0939419 90.1606952,71.4077211" id="Path" stroke="#8ACBCF" stroke-width="1.48514851" stroke-linecap="round"></path>
                            <path d="M53.5557908,76.7013534 C53.5557908,76.7013534 61.6088698,80.8123658 63.9741098,87.0070419" id="Path" stroke="#8ACBCF" stroke-width="1.48514851" stroke-linecap="round"></path>
                            <path d="M126.821915,34.1833491 C120.739869,26.2992159 91.061739,34.0144034 90.1606952,71.4078247 C90.1606952,71.4640363 137.916017,48.5437347 126.821915,34.1833491 Z" id="Path" fill="#0992A4" fill-rule="nonzero"></path>
                            <path d="M85.9370524,31.4239025 C80.8123658,26.4681616 55.2452479,38.7448834 60.8767717,74.3924287 C60.8767717,74.3361134 98.1011437,43.1374719 85.9370524,31.4239025 Z" id="Path" fill="#048CA6" fill-rule="nonzero"></path>
                            <path d="M13.6282875,2.59050092 C4.16732757,8.10939419 14.1914398,23.8213454 48.6563652,46.009549 C48.6563652,46.009549 39.364351,-12.4456675 13.6282875,2.59050092 Z" id="Path" fill="#0992A4" fill-rule="nonzero"></path>
                            <path d="M0.506837137,76.7013534 C0.112630475,90.1606952 17.5703541,90.6675323 53.5557908,76.7013534 C53.5557908,76.7013534 1.40788094,45.6716576 0.506837137,76.7013534 Z" id="Path" fill="#0992A4" fill-rule="nonzero"></path>
                            <path d="M67.8035459,105.365809 C67.8035459,105.365809 60.0883584,92.244359 49.5010937,92.6948809 C38.9138291,93.201718 26.806053,101.311112 35.2533387,102.944254 C43.7569395,104.577396 63.1293812,102.775308 67.8035459,105.365809 Z" id="Path" fill="#0992A4" fill-rule="nonzero"></path>
                            <path d="M80.3618439,99.0585027 C80.3618439,99.0585027 98.8332417,72.7592868 114.319932,81.0376267 C129.806622,89.3159666 110.20892,91.6248913 104.352135,92.7511961 C98.4390351,93.8775008 82.9523448,96.1301103 80.3618439,99.0585027 Z" id="Path" fill="#0992A4" fill-rule="nonzero"></path>
                            <path d="M12.1640913,3.66049043 C12.1640913,3.66049043 39.7585576,17.4014084 48.6563652,46.009549" id="Path" stroke="#8ACBCF" stroke-width="1.48514851" stroke-linecap="round"></path>
                            <path d="M38.3506767,26.1865854 C38.3506767,26.1865854 25.5108026,28.8897168 17.3450931,21.2871598" id="Path" stroke="#8ACBCF" stroke-width="1.48514851" stroke-linecap="round"></path>
                            <path d="M35.8728063,23.0892474 C35.8728063,23.0892474 38.0127853,13.0651351 35.8728063,9.85516656" id="Path" stroke="#8ACBCF" stroke-width="1.48514851" stroke-linecap="round"></path>
                            <path d="M43.3064176,33.7891425 C43.3064176,33.7891425 44.826929,29.5091844 43.8132547,26.6371073" id="Path" stroke="#8ACBCF" stroke-width="1.48514851" stroke-linecap="round"></path>
                            <path d="M60.8767717,74.3361134 C60.8767717,74.3361134 66.395665,38.0127853 85.9370524,31.3675873" id="Path" stroke="#8ACBCF" stroke-width="1.48514851" stroke-linecap="round"></path>
                            <path d="M77.9402886,57.2725965 C77.9402886,57.2725965 74.5613744,50.0642461 67.2403935,52.3731708" id="Path" stroke="#8ACBCF" stroke-width="1.48514851" stroke-linecap="round"></path>
                            <path d="M85.3739,46.7979623 C85.3739,46.7979623 77.7713429,40.1527643 69.2114268,48.2058433" id="Path" stroke="#8ACBCF" stroke-width="1.48514851" stroke-linecap="round"></path>
                            <path d="M90.1606952,71.4640363 C90.1606952,71.4640363 99.4527094,49.6700394 113.86941,43.4753633 C113.86941,43.4753633 112.855736,34.859132 121.077761,31.536533" id="Path" stroke="#8ACBCF" stroke-width="1.48514851" stroke-linecap="round"></path>
                            <path d="M107.224212,35.3659691 C107.224212,35.3659691 103.732667,44.9958747 106.435799,48.2058433" id="Path" stroke="#8ACBCF" stroke-width="1.48514851" stroke-linecap="round"></path>
                            <path d="M126.596654,44.7706138 C126.596654,44.7706138 115.164661,50.1768766 110.490496,45.1648204" id="Path" stroke="#8ACBCF" stroke-width="1.48514851" stroke-linecap="round"></path>
                            <path d="M113.587834,57.4978574 C113.587834,57.4978574 102.887939,58.0610098 101.705319,52.9926385" id="Path" stroke="#8ACBCF" stroke-width="1.48514851" stroke-linecap="round"></path>
                            <path d="M94.4406532,50.740029 C94.4406532,50.740029 92.8075113,60.707826 96.3553713,60.1446736" id="Path" stroke="#8ACBCF" stroke-width="1.48514851" stroke-linecap="round"></path>
                            <path d="M6.81414373,78.5597563 C6.81414373,78.5597563 28.4391949,68.2540678 53.5557908,76.7576687" id="Path" stroke="#8ACBCF" stroke-width="1.48514851" stroke-linecap="round"></path>
                            <path d="M2.81576187,68.1414373 C2.81576187,68.1414373 16.5003646,65.6072516 16.7819408,74.9555811" id="Path" stroke="#8ACBCF" stroke-width="1.48514851" stroke-linecap="round"></path>
                            <path d="M11.2630475,86.8944114 C11.2630475,86.8944114 20.3298007,83.5718124 23.0329321,74.0545373" id="Path" stroke="#8ACBCF" stroke-width="1.48514851" stroke-linecap="round"></path>
                            <path d="M29.4528692,65.7198821 C29.4528692,65.7198821 32.6628377,67.578285 32.3812615,73.3787544" id="Path" stroke="#8ACBCF" stroke-width="1.48514851" stroke-linecap="round"></path>
                            <path d="M119.388303,84.7544324 C119.388303,84.7544324 94.3280227,83.6844429 80.3055286,99.0585027" id="Path" stroke="#8ACBCF" stroke-width="1.48514851" stroke-linecap="round"></path>
                        </g>
                    </g>
                    <g id="Layer_15" transform="translate(160.527846, 212.308445)" fill="#955F4D">
                        <path d="M19.1471807,24.7223892 C19.1471807,24.7223892 14.4167008,16.6693103 14.8672227,14.8672227 C15.3177446,13.0651351 20.4424312,5.12468661 20.4424312,5.12468661 L11.6572542,0.112630475 C11.6572542,0.112630475 7.03940468,9.34832942 6.08204565,10.3620037 C5.12468661,11.375678 -1.91471807,13.5719722 1.18261999,17.063517 C4.27995805,20.5550617 14.7545922,28.3828797 14.7545922,28.3828797 C14.7545922,28.3828797 20.7240074,29.171293 21.7376817,28.1576187 C22.7513559,27.1439445 21.2308445,26.806053 20.5550617,26.3555311 C19.8229636,25.9050092 19.1471807,24.7223892 19.1471807,24.7223892 Z" id="Path"></path>
                    </g>
                    <path d="M361.926949,243.769829 L7.93386392,243.769829 C1.93861036,243.769829 1.78289137,243.267879 1.78289137,242.654124 L1.78289137,242.441742 C1.78289137,241.827987 1.93861036,241.326037 2.12886907,241.326037 L356.121954,241.326037 C356.312358,241.326037 356.468077,241.827987 356.468077,242.441742 L356.468077,242.654124 C356.468077,243.267879 356.312358,243.769829 361.926949,243.769829" id="Fill-133" fill="#283250"></path>
                    <g id="Layer_14" transform="translate(157.712084, 229.766169)" fill-rule="nonzero">
                        <path d="M38.5196224,12.2767218 L0.168945712,12.2767218 L0.168945712,9.23569894 L11.375678,9.46095989 L13.6846027,9.51727513 C15.4303751,5.4062628 21.0618988,-0.732098087 21.9066274,0.619467612 C22.1882036,1.06998951 23.1455626,1.8020876 24.4408131,2.7031314 C27.2565749,4.56153423 31.6491635,6.98308945 34.859132,8.27833991 C39.5896119,10.1367427 38.5196224,12.2767218 38.5196224,12.2767218 Z" id="Path" fill="#2B7CC2"></path>
                        <path d="M13.7409179,9.51727513 C15.4866903,5.4062628 21.118214,-0.732098087 21.9629426,0.619467612 C22.2445188,1.06998951 23.2018778,1.8020876 24.4971283,2.7031314 C22.5824102,4.33627328 18.6966588,7.82781801 18.1335065,9.68622084" id="Path" fill="#BEF0FF"></path>
                    </g>
                    <g id="Layer_11" transform="translate(219.095693, 215.124207)" fill="#BB8068">
                        <path d="M0.506837137,1.91471807 C0.506837137,1.91471807 2.98470759,8.72886181 3.54785996,10.0804275 C4.11101233,11.4319932 5.63152375,15.8245817 4.89942566,18.2461369 C4.16732757,20.6676921 3.6041752,23.0329321 5.06837137,24.1592369 L32.6065225,25.0039654 C32.6065225,25.0039654 27.8760425,20.4987464 22.300834,18.1898217 C16.7256255,15.880897 13.9661789,16.0498427 12.1640913,6.87045897 C10.3620037,-2.30892474 10.8125256,0.394206662 10.8125256,0.394206662 L0.506837137,1.91471807 Z" id="Path"></path>
                    </g>
                    <g id="Layer_12" transform="translate(221.348303, 229.766169)" fill="#2B7CC2" fill-rule="nonzero">
                        <path d="M37.0554262,12.0514608 L1.40788094,12.0514608 C0.67578285,12.0514608 0.112630475,11.4883084 0.112630475,10.7562104 C0.112630475,10.0241123 0.67578285,9.46095989 1.40788094,9.46095989 L1.46419617,9.46095989 L12.0514608,9.74253608 L13.515657,9.79885132 L20.2734855,1.3515657 C20.2734855,1.3515657 21.0055836,0.22526095 21.9629426,0.619467612 C22.1882036,0.732098087 23.2581931,1.29525046 24.7223892,2.08366379 C29.1149778,4.505219 37.0554262,8.95412276 37.0554262,8.95412276 C37.0554262,8.95412276 39.6459272,10.9814713 37.0554262,12.0514608 Z" id="Path"></path>
                    </g>
                    <g id="Layer_13" transform="translate(234.863960, 229.766169)" fill="#BEF0FF" fill-rule="nonzero">
                        <path d="M0,9.74253608 L6.7578285,1.29525046 C6.7578285,1.29525046 7.48992658,0.168945712 8.44728562,0.563152375 C8.67254657,0.67578285 9.74253608,1.23893522 11.2067323,2.02734855 L5.06837137,9.79885132" id="Path"></path>
                    </g>
                    <g id="Layer_9" transform="translate(170.664589, 159.372122)" fill="#013C4C">
                        <path d="M6.58888278,29.0023473 L13.7972332,59.1309993 L13.1777656,60.1446736 C13.1777656,60.1446736 2.2526095,57.385227 0.112630475,52.654747 C0.112630475,52.654747 2.42155521,41.6732757 6.58888278,29.0023473 Z" id="Path"></path>
                        <path d="M34.9154472,25.1165959 L20.0482245,49.1068871 L17.8519303,52.5984318 L15.5430055,56.3715527 L8.27833991,24.0466064 C8.84149228,22.526095 9.40464466,21.0055836 9.96779703,19.4850722 C10.6998951,17.6266693 11.4319932,15.8245817 12.2204065,14.0224941 C12.6146132,13.1777656 12.9525046,12.333037 13.3467113,11.4883084 C14.3603856,9.29201418 15.4866903,7.20835039 16.6129951,5.18100185 C17.6266693,3.43522949 18.6403436,1.8020876 19.7666483,0.281576187 L31.3675873,0.281576187 L34.9154472,25.1165959 Z" id="Path"></path>
                    </g>
                    <g id="Layer_8" transform="translate(109.280980, 126.709284)" fill="#0A5F66">
                        <path d="M12.8398741,32.0996854 C12.8398741,32.0996854 -0.844728562,24.3281826 0.337891425,14.8672227 L61.2709784,0.563152375 C61.2709784,0.563152375 108.688408,-3.32259901 112.348899,19.4850722 C116.009389,42.2927433 124.344044,82.7833991 124.344044,82.7833991 C124.344044,82.7833991 128.286111,89.653858 121.584598,90.2733256 C114.883084,90.9491085 109.758398,91.4559456 109.758398,91.4559456 C109.758398,91.4559456 87.9080857,44.9958747 88.8091295,34.1833491 L14.2477551,34.1833491 L12.8398741,32.0996854 Z" id="Path"></path>
                    </g>
                    <g id="Layer_28" transform="translate(209.522103, 112.067323)" fill="#CDD2DD">
                        <polygon id="Path" points="1.40788094 0.168945712 116.572542 0.168945712 116.572542 6.3073066 101.705319 6.3073066 122.767218 129.975568 118.825151 129.975568 95.8485342 6.13836088 27.2002597 6.13836088 4.33627328 129.975568 0.337891425 129.975568 22.1318883 5.51889327 1.40788094 5.51889327"></polygon>
                    </g>
                    <g id="Layer_21" transform="translate(212.951075, 32.662838)">
                        <g id="coins-il" transform="translate(0.275319, 7.406605)" fill-rule="nonzero">
                            <path d="M63.6839656,29.4570989 C63.6839656,44.8967404 51.1681965,57.4133247 35.7285551,57.4143311 C20.2889137,57.4153375 7.77151335,44.9003848 7.76950032,29.4607435 C7.7674873,14.0211022 20.2816238,1.50288588 35.721265,1.49986566 C43.1369314,1.49841584 50.2493678,4.44326126 55.4935486,9.68641665 C60.7377295,14.929572 63.6839656,22.0414323 63.6839656,29.4570989 Z" id="Path" fill="#FFCC00"></path>
                            <path d="M57.1225184,11.4623301 C48.4358234,1.1226338 33.5999533,-1.52985024 21.8686866,5.15934785 C10.1374198,11.8485459 4.86445904,25.9671365 9.33877953,38.7087394 C25.1081242,29.355032 41.0360372,20.2728956 57.1225184,11.4623301 Z" id="Path" fill="#FCDC59"></path>
                            <path d="M38.9527777,57.2229562 C45.2052988,56.5103321 51.0318737,53.7001613 55.4821566,49.2507979 C51.1078585,51.350461 46.7335604,53.4719955 42.3592623,55.5825944 C41.2656878,56.1348495 40.0955631,56.6761689 38.9527777,57.2229562 Z" id="Path" fill="#FCDC59"></path>
                            <path d="M56.5319882,29.0142013 C56.5319882,40.752252 47.016418,50.2678222 35.2783673,50.2678222 C23.5403166,50.2678222 14.0247464,40.752252 14.0247464,29.0142013 C14.0247464,17.2761506 23.5403166,7.76058036 35.2783673,7.76058036 C40.915178,7.76058036 46.3211197,9.9997947 50.3069467,13.9856218 C54.2927738,17.9714489 56.5319882,23.3773905 56.5319882,29.0142013 L56.5319882,29.0142013 Z" id="Path" fill="#DA8100"></path>
                            <path d="M57.1225184,29.8999966 C57.1225184,38.3822783 52.0123294,46.0291338 44.1752995,49.2741399 C36.3382696,52.519146 27.3181461,50.7230972 21.3218318,44.7236541 C15.3255175,38.7242111 13.5341743,29.7031519 16.7832681,21.8678158 C20.0323619,14.0324797 27.6818822,8.92628149 36.1641626,8.93070223 C47.7409117,8.93674252 57.1225184,18.323246 57.1225184,29.8999966 L57.1225184,29.8999966 Z" id="Path" fill="#F0AA00"></path>
                            <path d="M45.1970882,17.9690986 L38.3677153,17.9690986 C39.7054516,19.1724501 40.5344696,20.8402624 40.6860933,22.6331939 L45.1970882,22.6331939 L45.1970882,24.9187647 L40.7189005,24.9187647 C40.3088101,29.58286 36.9515363,32.5737863 31.6531677,32.7378225 C34.8792126,36.4395723 38.4005226,41.1091355 41.8780895,45.8169739 L37.908414,45.8169739 C34.7042407,41.519226 31.6586356,37.5386147 27.7655103,32.9674732 L27.7655103,30.1296473 L30.0401453,30.1296473 C34.5128651,30.1296473 36.9132612,28.0737272 37.2030584,24.9187647 L27.7655103,24.9187647 L27.7655103,22.6331939 L37.0608938,22.6331939 C36.4812993,19.9812757 34.2832145,18.6525826 30.6798864,18.6525826 L27.7655103,18.6525826 L27.7655103,15.6780599 L45.1970882,15.6780599 L45.1970882,17.9690986 Z" id="Path" fill="#EA9C00"></path>
                            <path d="M44.6174937,17.3840362 L37.7826529,17.3840362 C39.1239822,18.5846541 39.9537557,20.2539862 40.1010309,22.0481315 L44.6174937,22.0481315 L44.6174937,24.3337023 L40.1721133,24.3337023 C39.756555,28.9977976 36.404749,31.988724 31.1009126,32.158228 C34.305086,35.8599778 37.8263959,40.5240732 41.3039629,45.2428472 L37.3288195,45.2428472 C34.0973068,40.9396315 31.0735732,36.9644881 27.1804479,32.3878787 L27.1804479,29.5500528 L29.4605508,29.5500528 C33.9332706,29.5500528 36.3336667,27.4886648 36.6234639,24.3337023 L27.1804479,24.3337023 L27.1804479,22.0481315 L36.4758314,22.0481315 C35.8962369,19.3962133 33.70362,18.0729881 30.1002919,18.0729881 L27.1804479,18.0729881 L27.1804479,15.0984654 L44.6174937,15.0984654 L44.6174937,17.3840362 Z" id="Path" fill="#FFCC00"></path>
                            <polygon id="Path" fill="#FEC648" points="4.06809724 33.4588879 5.30383645 35.7225871 7.56753572 36.9583264 5.30383645 38.1940656 4.06809724 40.4577648 2.83235802 38.1940656 0.568658753 36.9583264 2.83235802 35.7225871"></polygon>
                            <polygon id="Path" fill="#FBFCE6" points="10.0113279 5.97805388 10.6401332 7.13177501 11.7938543 7.76058036 10.6401332 8.38938571 10.0113279 9.54310684 9.38252251 8.38938571 8.22880139 7.76058036 9.38252251 7.13177501"></polygon>
                            <polygon id="Path" fill="#FEC648" points="62.7038287 0.0895019812 63.9176964 2.32039401 66.1485885 3.53426174 63.9176964 4.75359733 62.7038287 6.97902149 61.4844931 4.75359733 59.2590689 3.53426174 61.4844931 2.32039401"></polygon>
                            <polygon id="Path" fill="#FEC648" points="52.0702041 55.0949129 52.9559995 56.7134032 54.5744898 57.5991986 52.9559995 58.484994 52.0702041 60.0980164 51.1898766 58.484994 49.5713863 57.5991986 51.1898766 56.7134032"></polygon>
                            <polygon id="Path" fill="#FBFCE6" points="68.2004284 30.4139767 68.7854907 31.4856797 69.8571938 32.0707421 68.7854907 32.6558044 68.2004284 33.7275075 67.615366 32.6558044 66.543663 32.0707421 67.615366 31.4856797"></polygon>
                            <polygon id="Path" fill="#FBFCE6" points="68.2004284 18.4010605 68.4027397 18.7728758 68.7690871 18.9697192 68.4027397 19.1720305 68.2004284 19.5438459 67.9981171 19.1720305 67.6317696 18.9697192 67.9981171 18.7728758"></polygon>
                            <polygon id="Path" fill="#FBFCE6" points="3.0124509 18.4010605 3.21476219 18.7728758 3.58110965 18.9697192 3.21476219 19.1720305 3.0124509 19.5438459 2.81013961 19.1720305 2.44379215 18.9697192 2.81013961 18.7728758"></polygon>
                        </g>
                        <path d="M58.6304194,2.7031314 C58.6304194,2.7031314 46.5789586,4.22364281 44.5516101,3.26628377 C42.5242615,2.30892474 40.1590216,-1.3515657 36.2732702,0.67578285 C32.3875188,2.7031314 27.3191474,6.92677421 27.6570388,7.88413324 C27.9949303,8.84149228 28.9522893,9.68622084 28.7270284,10.3620037 C28.5017674,10.9814713 26.8123103,14.2477551 30.3601702,14.7545922 C30.3601702,14.7545922 29.4028112,19.0345503 34.3585521,17.9645608 C34.3585521,17.9645608 36.7237921,19.7103331 40.8348044,17.1198322 C44.9458167,14.5293313 48.1557853,12.2767218 48.1557853,12.2767218 L59.5877785,14.0224941 L58.6304194,2.7031314 Z" id="Path" fill="#BB8068"></path>
                    </g>
                    <g id="Layer_22" transform="translate(269.779407, 28.720771)" fill="#E43A70" fill-rule="nonzero">
                        <polygon id="Path" points="0.0563152375 3.26628377 0.619467612 23.8213454 21.343475 23.8213454 24.2718673 0.506837137"></polygon>
                    </g>
                    <g id="Layer_29" transform="translate(280.479302, 0.000000)" fill="#2F3849">
                        <path d="M0,112.236268 L0,109.871028 L33.0007292,109.871028 C33.0007292,109.871028 37.5622634,109.364191 36.1543824,104.802657 C34.7465015,100.241123 21.1745293,54.4568346 21.1745293,54.4568346 C21.1745293,54.4568346 20.2171702,53.2178994 19.4850722,53.8936823 C19.4850722,53.8936823 12.2204065,92.5822504 5.4062628,101.592688 L2.98470759,101.592688 L15.0924836,0.394206662 L16.7819408,0.394206662 C16.7819408,0.394206662 23.3708235,32.8880987 20.2171702,50.7963442 C20.2171702,50.7963442 22.2445188,51.0216051 23.3145083,53.6684213 C24.3844978,56.2589222 38.4633072,104.126874 38.4633072,104.126874 C38.4633072,104.126874 40.7159167,109.476822 35.1970234,112.236268 L0,112.236268 Z" id="Path"></path>
                    </g>
                    <g id="Layer_10" transform="translate(86.754885, 81.657094)">
                        <path d="M99.3963941,134.142896 L97.706937,136.846027 L90.4985866,106.717375 C91.0054237,105.084233 91.5685761,103.451091 92.1880437,101.817949 L99.3963941,134.142896 Z" id="Path" fill="#013C4C"></path>
                        <polygon id="Path" fill="#6F4336" fill-rule="nonzero" points="99.3963941 134.142896 104.239505 155.655316 101.986895 154.585327 97.706937 136.846027"></polygon>
                        <path d="M111.335224,160.385796 L108.857354,160.385796 L101.761634,130.651351 L93.8775008,97.5379913 L92.1317285,90.1043799 L89.4849123,90.1043799 L92.1880437,102.099526 C91.5685761,103.732667 91.0054237,105.365809 90.4985866,106.998951 L86.5002047,90.1043799 L37.8438396,90.1043799 L20.8366379,160.442112 L18.9219198,160.442112 L34.7465015,90.1043799 L31.9307396,90.1043799 L15.7119513,160.442112 L13.4593418,160.442112 L28.7770863,90.1043799 C28.7770863,90.1043799 22.7513559,89.9917495 23.3708235,82.6144534 C23.3708235,82.6144534 18.2461369,82.1076162 17.7392998,76.138201 C17.7392998,76.138201 10.2493732,79.9676372 8.89780752,69.0424811 C7.60255706,58.1173251 0.22526095,7.03940468 0.22526095,7.03940468 C0.22526095,7.03940468 -0.168945712,0.844728562 5.74415422,0.4505219 C5.74415422,0.4505219 11.8261999,-0.844728562 12.8398741,4.505219 C13.9098637,9.91148179 22.7513559,71.6329821 22.7513559,71.6329821 C22.7513559,71.6329821 22.526095,74.2797982 20.7803226,74.9555811 C20.7803226,74.9555811 19.2598112,77.7150277 24.666074,80.7560505 C24.666074,80.7560505 25.5671178,76.8139839 28.8897168,76.9266144 C32.1560006,77.0392448 96.4116865,76.9266144 96.4116865,76.9266144 C96.4116865,76.9266144 100.410068,76.3071468 100.522699,83.2902362 C100.579014,87.5701943 98.7206113,89.0343904 97.2564151,89.5975428 C96.3553713,89.9354342 95.6795884,90.1043799 95.6795884,90.1043799 L96.1301103,92.0754132 L103.901613,127.159806 L111.335224,160.385796 Z" id="Path" fill="#CDD2DD"></path>
                    </g>
                    <g id="Layer_7" transform="translate(107.028371, 122.767218)" fill="#FEC847" fill-rule="nonzero">
                        <path d="M2.08366379,20.5550617 C2.08366379,20.5550617 21.4561055,19.7666483 35.7601758,13.6846027 C50.0642461,7.60255706 62.5099136,4.505219 63.4672726,4.505219 C64.4246317,4.505219 62.0030764,0.112630475 62.0030764,0.112630475 L15.8245817,12.333037 L0.4505219,15.655636 C0.506837137,15.655636 0.901043799,19.8792788 2.08366379,20.5550617 Z" id="Path"></path>
                    </g>
                    <g id="Layer_20" transform="translate(219.658846, 103.620037)" fill="#955F4D">
                        <path d="M0.281576187,6.36362183 C0.281576187,6.36362183 4.33627328,7.43361134 7.26466563,5.8567847 C10.193058,4.27995805 11.4319932,1.8020876 12.5019827,1.40788094 C13.5719722,1.06998951 11.150417,0 9.85516656,0.901043799 C8.50360086,1.8020876 4.39258852,4.61784947 3.66049043,4.78679518 C2.92839235,4.89942566 0.281576187,6.36362183 0.281576187,6.36362183 Z" id="Path"></path>
                    </g>
                    <g id="Layer_19" transform="translate(197.132751, 65.325675)">
                        <path d="M0.168945712,7.88413324 C0.168945712,7.88413324 2.30892474,4.61784947 3.37891425,3.82943615 C4.44890376,3.04102282 10.8125256,1.23893522 11.6009389,0.619467612 C12.3893522,1.60427227e-14 13.290396,0.732098087 12.558298,1.85840284 C11.8261999,2.98470759 7.43361134,3.99838186 6.47625231,5.29363232 C5.57520851,6.64519802 0.168945712,7.88413324 0.168945712,7.88413324 Z" id="Path" fill="#955F4D"></path>
                        <path d="M0.844728562,10.0804275 C0.844728562,10.0804275 3.77312091,10.6998951 5.63152375,11.7698846 C7.48992658,12.8398741 11.2630475,13.0651351 11.4883084,12.0514608 C11.6572542,11.0377865 6.19467612,8.33465514 6.19467612,8.33465514 C6.19467612,8.33465514 1.46419617,7.54624182 0.844728562,10.0804275 Z" id="Path" fill="#955F4D"></path>
                        <path d="M2.47787045,37.1117415 C2.47787045,37.1117415 7.88413324,36.041752 9.40464466,34.9154472 C10.9251561,33.7891425 13.6282875,32.5502073 16.6129951,32.4375768 C19.5977026,32.3249463 21.4561055,31.311272 22.8639864,30.6354892 C24.2718673,29.9597063 26.2992159,30.6354892 24.891335,31.9870549 C23.483454,33.3386206 16.1624732,38.2943615 16.6129951,38.9701443 C17.0072017,39.7022424 20.5550617,39.4206662 22.1318883,39.7585576 C23.708715,40.0964491 25.2292264,40.9974929 28.213934,38.6322529 C31.1986416,36.2670129 33.0570444,35.5349148 33.5075663,35.8728063 C33.9580882,36.2106977 28.6644559,41.9548519 27.2002597,43.3064176 C25.7923788,44.6579833 20.4987464,46.5163861 17.9645608,45.9532338 C15.4303751,45.3900814 6.3073066,42.7432652 3.66049043,44.3764071 C1.01367427,45.9532338 2.47787045,37.1117415 2.47787045,37.1117415 Z" id="Path" fill="#BB8068"></path>
                    </g>
                    <g id="Layer_18" transform="translate(184.743398, 70.394047)" fill="#BB8068">
                        <path d="M0.788413324,11.2630475 C0.788413324,11.2630475 7.43361134,7.09571992 9.62990561,4.505219 C11.8261999,1.91471807 15.5993208,0.281576187 17.0072017,0.281576187 C18.4713979,0.281576187 25.2855416,5.51889327 25.9050092,6.58888278 C26.5244768,7.65887229 24.0466064,7.60255706 21.118214,5.80046946 C18.1898217,3.99838186 16.5003646,3.1536533 15.2051141,4.56153423 C13.8535484,5.96941517 10.3620037,10.0241123 11.7698846,9.96779703 C13.1777656,9.85516656 19.8229636,9.79885132 21.0618988,9.79885132 C22.300834,9.79885132 25.0602807,9.06675323 25.2292264,9.91148179 C25.3981721,10.6998951 25.3418569,11.8825151 21.0618988,12.8961894 C16.838256,13.9661789 15.4866903,14.0224941 13.4030265,15.655636 C11.3193627,17.2887779 3.88575138,18.4713979 1.74577236,18.020876 C-0.394206662,17.5140389 0.788413324,11.2630475 0.788413324,11.2630475 Z" id="Path"></path>
                    </g>
                    <g id="Layer_17" transform="translate(161.654151, 78.841332)" fill="#BB547A" fill-rule="nonzero">
                        <polygon id="Path" points="0.394206662 2.81576187 6.70151326 12.4456675 23.9339759 0.112630475 29.7907606 12.4456675 3.32259901 34.1270339"></polygon>
                    </g>
                    <g id="Layer_6" transform="translate(105.226283, 46.115922)" fill-rule="nonzero">
                        <g id="Group">
                            <g id="XMLID_1_-link" transform="translate(0.675783, 0.062572)" fill="url(#linearGradient-1)">
                                <path d="M1.63314189,92.244359 C1.63314189,92.244359 -11.2630475,45.7279728 39.3080357,0.281576187 C57.4978574,14.9798532 57.5541727,14.4167008 57.5541727,14.4167008 C57.5541727,14.4167008 58.7931079,74.223483 63.1856964,76.7576687 C63.1856964,76.7576687 33.8454577,86.1623133 28.5518254,87.6265095 C23.2581931,89.0343904 6.13836088,94.7222294 1.63314189,92.244359 Z" id="XMLID_1_"></path>
                            </g>
                            <path d="M16.0498427,43.4253053 C16.0498427,43.9321425 16.0498427,44.3826644 16.0498427,44.8895015 C16.0498427,45.1147625 16.1624732,45.3400234 16.2751036,45.5089691 C16.4440493,45.6779148 16.6693103,45.7905453 16.8945712,45.7342301 C17.1198322,45.7342301 17.3450931,45.6779148 17.5140389,45.5089691 C17.6829846,45.3400234 17.7392998,45.1147625 17.7392998,44.8895015 C17.7392998,44.3826644 17.7392998,43.9321425 17.7392998,43.4253053 C17.7392998,43.2000444 17.6266693,42.9747834 17.5140389,42.8058377 C17.3450931,42.636892 17.1198322,42.5242615 16.8945712,42.5805768 C16.6693103,42.5805768 16.4440493,42.636892 16.2751036,42.8058377 C16.1061579,42.9747834 16.0498427,43.2000444 16.0498427,43.4253053 L16.0498427,43.4253053 Z" id="Path" fill="#FFFFFF"></path>
                            <path d="M22.6387255,36.0480092 C23.708715,36.0480092 23.708715,34.3585521 22.6387255,34.3585521 C21.5124207,34.3585521 21.5124207,36.0480092 22.6387255,36.0480092 L22.6387255,36.0480092 Z" id="Path" fill="#FFFFFF"></path>
                            <path d="M34.1270339,18.5902856 C35.1970234,18.5902856 35.1970234,16.9008285 34.1270339,16.9008285 C33.0570444,16.9008285 33.0570444,18.5902856 34.1270339,18.5902856 L34.1270339,18.5902856 Z" id="Path" fill="#FFFFFF"></path>
                            <path d="M41.729591,7.66512954 C42.7995805,7.66512954 42.7995805,5.97567242 41.729591,5.97567242 C40.6596014,5.97567242 40.6596014,7.66512954 41.729591,7.66512954 L41.729591,7.66512954 Z" id="Path" fill="#FFFFFF"></path>
                            <path d="M47.4737452,11.1566743 C48.5437347,11.1566743 48.5437347,9.46721714 47.4737452,9.46721714 C46.4037557,9.46721714 46.4037557,11.1566743 47.4737452,11.1566743 L47.4737452,11.1566743 Z" id="Path" fill="#FFFFFF"></path>
                            <path d="M54.8510413,19.8292208 C55.9210308,19.8292208 55.9210308,18.1397637 54.8510413,18.1397637 C53.7810518,18.1397637 53.7810518,19.8292208 54.8510413,19.8292208 L54.8510413,19.8292208 Z" id="Path" fill="#FFFFFF"></path>
                            <path d="M54.6820956,27.2065169 C55.7520851,27.2065169 55.7520851,25.5170598 54.6820956,25.5170598 C53.5557908,25.5170598 53.5557908,27.2065169 54.6820956,27.2065169 L54.6820956,27.2065169 Z" id="Path" fill="#FFFFFF"></path>
                            <path d="M54.8510413,36.4422159 C55.9210308,36.4422159 55.9210308,34.7527588 54.8510413,34.7527588 C53.7810518,34.7527588 53.7810518,36.4422159 54.8510413,36.4422159 L54.8510413,36.4422159 Z" id="Path" fill="#FFFFFF"></path>
                            <path d="M57.3289117,47.9305243 C58.3989012,47.9305243 58.3989012,46.2410672 57.3289117,46.2410672 C56.2589222,46.2410672 56.2589222,47.9305243 57.3289117,47.9305243 L57.3289117,47.9305243 Z" id="Path" fill="#FFFFFF"></path>
                            <path d="M58.1736403,38.9200863 C59.2436298,38.9200863 59.2436298,37.2306292 58.1736403,37.2306292 C57.0473355,37.2306292 57.0473355,38.9200863 58.1736403,38.9200863 L58.1736403,38.9200863 Z" id="Path" fill="#FFFFFF"></path>
                            <path d="M57.9483793,33.1759321 C59.0183689,33.1759321 59.0183689,31.486475 57.9483793,31.486475 C56.8783898,31.486475 56.8783898,33.1759321 57.9483793,33.1759321 L57.9483793,33.1759321 Z" id="Path" fill="#FFFFFF"></path>
                            <path d="M57.9483793,28.8396588 C59.0183689,28.8396588 59.0183689,27.1502017 57.9483793,27.1502017 C56.8783898,27.1502017 56.8783898,28.8396588 57.9483793,28.8396588 L57.9483793,28.8396588 Z" id="Path" fill="#FFFFFF"></path>
                            <path d="M26.5244768,19.8292208 C27.5944664,19.8292208 27.5944664,18.1397637 26.5244768,18.1397637 C25.4544873,18.1397637 25.4544873,19.8292208 26.5244768,19.8292208 L26.5244768,19.8292208 Z" id="Path" fill="#FFFFFF"></path>
                            <path d="M19.1471807,27.4317779 C20.2171702,27.4317779 20.2171702,25.7423208 19.1471807,25.7423208 C18.020876,25.7423208 18.020876,27.4317779 19.1471807,27.4317779 L19.1471807,27.4317779 Z" id="Path" fill="#FFFFFF"></path>
                            <path d="M10.3056885,42.8058377 C11.375678,42.8058377 11.375678,41.1163806 10.3056885,41.1163806 C9.23569894,41.1163806 9.17938371,42.8058377 10.3056885,42.8058377 L10.3056885,42.8058377 Z" id="Path" fill="#FFFFFF"></path>
                            <path d="M6.41993707,62.7414318 C7.48992658,62.7414318 7.48992658,61.0519747 6.41993707,61.0519747 C5.29363232,61.0519747 5.29363232,62.7414318 6.41993707,62.7414318 L6.41993707,62.7414318 Z" id="Path" fill="#FFFFFF"></path>
                            <path d="M5.57520851,76.4823497 C6.64519802,76.4823497 6.64519802,74.7928926 5.57520851,74.7928926 C4.505219,74.7928926 4.505219,76.4823497 5.57520851,76.4823497 L5.57520851,76.4823497 Z" id="Path" fill="#FFFFFF"></path>
                            <path d="M9.46095989,66.6271832 C10.5309494,66.6271832 10.5309494,64.937726 9.46095989,64.937726 C8.39097038,64.937726 8.39097038,66.6271832 9.46095989,66.6271832 L9.46095989,66.6271832 Z" id="Path" fill="#FFFFFF"></path>
                            <path d="M10.6998951,56.9972776 C11.7698846,56.9972776 11.7698846,55.3078204 10.6998951,55.3078204 C9.62990561,55.3078204 9.62990561,56.9972776 10.6998951,56.9972776 L10.6998951,56.9972776 Z" id="Path" fill="#FFFFFF"></path>
                            <path d="M16.6693103,56.3778099 C17.7392998,56.3778099 17.7392998,54.6883528 16.6693103,54.6883528 C15.5993208,54.6883528 15.5993208,56.3778099 16.6693103,56.3778099 L16.6693103,56.3778099 Z" id="Path" fill="#FFFFFF"></path>
                            <path d="M19.3161264,50.6336557 C20.386116,50.6336557 20.386116,48.9441986 19.3161264,48.9441986 C18.2461369,48.9441986 18.2461369,50.6336557 19.3161264,50.6336557 L19.3161264,50.6336557 Z" id="Path" fill="#FFFFFF"></path>
                            <path d="M22.4134645,42.8058377 C23.483454,42.8058377 23.483454,41.1163806 22.4134645,41.1163806 C21.343475,41.1163806 21.343475,42.8058377 22.4134645,42.8058377 L22.4134645,42.8058377 Z" id="Path" fill="#FFFFFF"></path>
                            <path d="M18.0771912,38.3006187 C19.1471807,38.3006187 19.1471807,36.6111616 18.0771912,36.6111616 C17.0072017,36.6111616 17.0072017,38.3006187 18.0771912,38.3006187 L18.0771912,38.3006187 Z" id="Path" fill="#FFFFFF"></path>
                            <path d="M23.2581931,29.4591264 C24.3281826,29.4591264 24.3281826,27.7696693 23.2581931,27.7696693 C22.1318883,27.7696693 22.1318883,29.4591264 23.2581931,29.4591264 L23.2581931,29.4591264 Z" id="Path" fill="#FFFFFF"></path>
                            <path d="M23.6523997,23.0955046 C24.7223892,23.0955046 24.7223892,21.4060475 23.6523997,21.4060475 C22.5824102,21.4060475 22.5824102,23.0955046 23.6523997,23.0955046 L23.6523997,23.0955046 Z" id="Path" fill="#FFFFFF"></path>
                            <path d="M32.0996854,13.0150771 C33.1696749,13.0150771 33.1696749,11.32562 32.0996854,11.32562 C30.9733806,11.32562 30.9733806,13.0150771 32.0996854,13.0150771 L32.0996854,13.0150771 Z" id="Path" fill="#FFFFFF"></path>
                            <path d="M37.224372,6.65145527 C38.2943615,6.65145527 38.2943615,4.96199815 37.224372,4.96199815 C36.0980672,4.96199815 36.0980672,6.65145527 37.224372,6.65145527 L37.224372,6.65145527 Z" id="Path" fill="#FFFFFF"></path>
                            <path d="M19.3161264,60.0946156 C20.386116,60.0946156 20.386116,58.4051585 19.3161264,58.4051585 C18.2461369,58.4051585 18.2461369,60.0946156 19.3161264,60.0946156 L19.3161264,60.0946156 Z" id="Path" fill="#FFFFFF"></path>
                            <path d="M23.4271388,62.9666927 C24.4971283,62.9666927 24.4971283,61.2772356 23.4271388,61.2772356 C22.3571493,61.2772356 22.3571493,62.9666927 23.4271388,62.9666927 L23.4271388,62.9666927 Z" id="Path" fill="#FFFFFF"></path>
                            <path d="M22.8076712,70.7381955 C23.8776607,70.7381955 23.8776607,69.0487384 22.8076712,69.0487384 C21.7376817,69.0487384 21.7376817,70.7381955 22.8076712,70.7381955 L22.8076712,70.7381955 Z" id="Path" fill="#FFFFFF"></path>
                            <path d="M17.2887779,68.8797927 C18.3587674,68.8797927 18.3587674,67.1903355 17.2887779,67.1903355 C16.2187884,67.1903355 16.2187884,68.8797927 17.2887779,68.8797927 L17.2887779,68.8797927 Z" id="Path" fill="#FFFFFF"></path>
                            <path d="M10.6998951,83.0712325 C11.7698846,83.0712325 11.7698846,81.3817754 10.6998951,81.3817754 C9.62990561,81.3817754 9.62990561,83.0712325 10.6998951,83.0712325 L10.6998951,83.0712325 Z" id="Path" fill="#FFFFFF"></path>
                            <path d="M9.68622084,79.5796878 C10.7562104,79.5796878 10.7562104,77.8902307 9.68622084,77.8902307 C8.61623133,77.8902307 8.61623133,79.5796878 9.68622084,79.5796878 L9.68622084,79.5796878 Z" id="Path" fill="#FFFFFF"></path>
                            <path d="M3.94206662,88.8153867 C5.01205613,88.8153867 5.01205613,87.1259296 3.94206662,87.1259296 C2.81576187,87.1259296 2.81576187,88.8153867 3.94206662,88.8153867 L3.94206662,88.8153867 Z" id="Path" fill="#FFFFFF"></path>
                            <path d="M4.33627328,84.7043744 C5.4062628,84.7043744 5.4062628,83.0149173 4.33627328,83.0149173 C3.26628377,83.0149173 3.26628377,84.7043744 4.33627328,84.7043744 L4.33627328,84.7043744 Z" id="Path" fill="#FFFFFF"></path>
                            <path d="M17.6829846,74.6802621 C18.7529741,74.6802621 18.7529741,72.990805 17.6829846,72.990805 C16.6129951,72.990805 16.6129951,74.6802621 17.6829846,74.6802621 L17.6829846,74.6802621 Z" id="Path" fill="#FFFFFF"></path>
                            <path d="M13.1777656,70.9634564 C14.2477551,70.9634564 14.2477551,69.2739993 13.1777656,69.2739993 C12.1077761,69.2739993 12.1077761,70.9634564 13.1777656,70.9634564 L13.1777656,70.9634564 Z" id="Path" fill="#FFFFFF"></path>
                            <path d="M10.0804275,72.8218593 C11.150417,72.8218593 11.150417,71.1324022 10.0804275,71.1324022 C9.01043799,71.1324022 9.01043799,72.8218593 10.0804275,72.8218593 L10.0804275,72.8218593 Z" id="Path" fill="#FFFFFF"></path>
                            <path d="M5.18100185,70.3439888 C6.25099136,70.3439888 6.25099136,68.6545317 5.18100185,68.6545317 C4.0546971,68.6545317 4.0546971,70.3439888 5.18100185,70.3439888 L5.18100185,70.3439888 Z" id="Path" fill="#FFFFFF"></path>
                            <path d="M6.58888278,53.7309938 C7.65887229,53.7309938 7.65887229,52.0415367 6.58888278,52.0415367 C5.51889327,52.0415367 5.51889327,53.7309938 6.58888278,53.7309938 L6.58888278,53.7309938 Z" id="Path" fill="#FFFFFF"></path>
                            <path d="M7.60255706,49.1694596 C8.67254657,49.1694596 8.67254657,47.4800024 7.60255706,47.4800024 C6.53256755,47.4800024 6.53256755,49.1694596 7.60255706,49.1694596 L7.60255706,49.1694596 Z" id="Path" fill="#FFFFFF"></path>
                            <path d="M13.7972332,33.9643454 C14.8672227,33.9643454 14.8672227,32.2748883 13.7972332,32.2748883 C12.7272437,32.2748883 12.7272437,33.9643454 13.7972332,33.9643454 L13.7972332,33.9643454 Z" id="Path" fill="#FFFFFF"></path>
                            <path d="M17.063517,30.4728007 C18.1335065,30.4728007 18.1335065,28.7833436 17.063517,28.7833436 C15.9935274,28.7833436 15.9935274,30.4728007 17.063517,30.4728007 L17.063517,30.4728007 Z" id="Path" fill="#FFFFFF"></path>
                            <path d="M38.4633072,82.2828192 C39.5332967,82.2828192 39.5332967,80.5933621 38.4633072,80.5933621 C37.3370024,80.5933621 37.3370024,82.2828192 38.4633072,82.2828192 L38.4633072,82.2828192 Z" id="Path" fill="#FFFFFF"></path>
                            <path d="M43.9822005,81.2128297 C45.05219,81.2128297 45.05219,79.5233725 43.9822005,79.5233725 C42.9122109,79.5233725 42.9122109,81.2128297 43.9822005,81.2128297 L43.9822005,81.2128297 Z" id="Path" fill="#FFFFFF"></path>
                            <path d="M49.9516156,81.043884 C51.0216051,81.043884 51.0216051,79.3544268 49.9516156,79.3544268 C48.8816261,79.3544268 48.8816261,81.043884 49.9516156,81.043884 L49.9516156,81.043884 Z" id="Path" fill="#FFFFFF"></path>
                            <path d="M55.9210308,79.8049487 C56.9910203,79.8049487 56.9910203,78.1154916 55.9210308,78.1154916 C54.794726,78.1154916 54.794726,79.8049487 55.9210308,79.8049487 L55.9210308,79.8049487 Z" id="Path" fill="#FFFFFF"></path>
                            <path d="M61.4399241,78.9602202 C62.5099136,78.9602202 62.5099136,77.270763 61.4399241,77.270763 C60.3699346,77.270763 60.3699346,78.9602202 61.4399241,78.9602202 L61.4399241,78.9602202 Z" id="Path" fill="#FFFFFF"></path>
                            <path d="M56.9347051,51.0278624 C58.0046946,51.0278624 58.0046946,49.3384053 56.9347051,49.3384053 C55.8647156,49.3384053 55.8647156,51.0278624 56.9347051,51.0278624 L56.9347051,51.0278624 Z" id="Path" fill="#FFFFFF"></path>
                            <path d="M57.159966,55.5330814 C58.2299555,55.5330814 58.2299555,53.8436243 57.159966,53.8436243 C56.0336613,53.8436243 56.0336613,55.5330814 57.159966,55.5330814 L57.159966,55.5330814 Z" id="Path" fill="#FFFFFF"></path>
                            <path d="M58.567847,55.7583423 C59.6378365,55.7583423 59.6378365,54.0688852 58.567847,54.0688852 C57.4978574,54.0688852 57.4978574,55.7583423 58.567847,55.7583423 L58.567847,55.7583423 Z" id="Path" fill="#FFFFFF"></path>
                            <path d="M55.6957698,23.3207656 C56.7657594,23.3207656 56.7657594,21.6313084 55.6957698,21.6313084 C54.6257803,21.6313084 54.6257803,23.3207656 55.6957698,23.3207656 L55.6957698,23.3207656 Z" id="Path" fill="#FFFFFF"></path>
                            <path d="M52.5984318,18.3650247 C53.6684213,18.3650247 53.6684213,16.6755675 52.5984318,16.6755675 C51.5284423,16.6755675 51.5284423,18.3650247 52.5984318,18.3650247 L52.5984318,18.3650247 Z" id="Path" fill="#FFFFFF"></path>
                            <path d="M49.9516156,13.6345447 C51.0216051,13.6345447 51.0216051,11.9450876 49.9516156,11.9450876 C48.8816261,11.9450876 48.8816261,13.6345447 49.9516156,13.6345447 L49.9516156,13.6345447 Z" id="Path" fill="#FFFFFF"></path>
                            <path d="M56.3152375,16.7318828 C57.385227,16.7318828 57.385227,15.0424257 56.3152375,15.0424257 C55.2452479,15.0424257 55.2452479,16.7318828 56.3152375,16.7318828 L56.3152375,16.7318828 Z" id="Path" fill="#FFFFFF"></path>
                            <path d="M45.4463966,13.6345447 C46.5163861,13.6345447 46.5163861,11.9450876 45.4463966,11.9450876 C44.3200919,11.9450876 44.3200919,13.6345447 45.4463966,13.6345447 L45.4463966,13.6345447 Z" id="Path" fill="#FFFFFF"></path>
                            <path d="M43.5879938,36.2169549 C44.6579833,36.2169549 44.6579833,34.5274978 43.5879938,34.5274978 C42.461689,34.5274978 42.461689,36.2169549 43.5879938,36.2169549 L43.5879938,36.2169549 Z" id="Path" fill="#FFFFFF"></path>
                            <path d="M43.5879938,45.9031758 C44.6579833,45.9031758 44.6579833,44.2137187 43.5879938,44.2137187 C42.461689,44.2137187 42.461689,45.9031758 43.5879938,45.9031758 L43.5879938,45.9031758 Z" id="Path" fill="#FFFFFF"></path>
                        </g>
                    </g>
                    <g id="Layer_27" transform="translate(127.865008, 77.151875)" fill="#C96385" fill-rule="nonzero">
                        <path d="M3.82943615,0.22526095 C3.82943615,0.22526095 -4.27995805,36.1543824 4.56153423,44.3764071 C13.4030265,52.5984318 40.3780253,44.3764071 40.3780253,44.3764071 L3.82943615,0.22526095 Z" id="Path"></path>
                    </g>
                    <g id="Layer_16" transform="translate(130.117618, 58.004695)" fill-rule="nonzero">
                        <g id="Group">
                            <g id="XMLID_2_-link" fill="url(#linearGradient-2)">
                                <path d="M12.3893522,0.4505219 C-0.788413324,2.36523997 0.22526095,25.7923788 0.0563152375,32.9444139 C-0.112630475,40.0964491 0.788413324,62.6225441 15.0361684,62.9041202 C29.2839235,63.1856964 70.900884,60.3699346 71.5203516,54.5131499 C72.1398192,48.6563652 69.718264,39.9838186 69.718264,39.9838186 C69.718264,39.9838186 36.999111,44.7142985 30.4665435,44.4327224 C30.4665435,44.4327224 27.9323578,12.4456675 26.7497378,10.1367427 C25.6797483,7.82781801 22.9203016,-1.12630475 12.3893522,0.4505219 Z" id="XMLID_2_"></path>
                            </g>
                            <path d="M17.4577236,6.47625231 C18.5277131,6.47625231 18.5277131,4.78679518 17.4577236,4.78679518 C16.3877341,4.78679518 16.3877341,6.47625231 17.4577236,6.47625231 L17.4577236,6.47625231 Z" id="Path" fill="#FFFFFF"></path>
                            <path d="M16.838256,12.8398741 C17.9082455,12.8398741 17.9082455,11.150417 16.838256,11.150417 C15.7682665,11.150417 15.7682665,12.8398741 16.838256,12.8398741 L16.838256,12.8398741 Z" id="Path" fill="#FFFFFF"></path>
                            <path d="M12.5019827,9.17938371 C13.5719722,9.17938371 13.5719722,7.48992658 12.5019827,7.48992658 C11.4319932,7.48992658 11.4319932,9.17938371 12.5019827,9.17938371 L12.5019827,9.17938371 Z" id="Path" fill="#FFFFFF"></path>
                            <path d="M8.22202467,14.3040703 C9.29201418,14.3040703 9.29201418,12.6146132 8.22202467,12.6146132 C7.09571992,12.6146132 7.09571992,14.3040703 8.22202467,14.3040703 L8.22202467,14.3040703 Z" id="Path" fill="#FFFFFF"></path>
                            <path d="M7.99676372,7.94044848 C9.06675323,7.94044848 9.06675323,6.25099136 7.99676372,6.25099136 C6.92677421,6.25099136 6.92677421,7.94044848 7.99676372,7.94044848 L7.99676372,7.94044848 Z" id="Path" fill="#FFFFFF"></path>
                            <path d="M8.39097038,4.84311042 C9.46095989,4.84311042 9.46095989,3.1536533 8.39097038,3.1536533 C7.32098087,3.1536533 7.32098087,4.84311042 8.39097038,4.84311042 L8.39097038,4.84311042 Z" id="Path" fill="#FFFFFF"></path>
                            <path d="M21.1745293,7.09571992 C22.2445188,7.09571992 22.2445188,5.4062628 21.1745293,5.4062628 C20.0482245,5.4062628 20.0482245,7.09571992 21.1745293,7.09571992 L21.1745293,7.09571992 Z" id="Path" fill="#FFFFFF"></path>
                            <path d="M19.3161264,11.8261999 C20.386116,11.8261999 20.386116,10.1367427 19.3161264,10.1367427 C18.1898217,10.1367427 18.1898217,11.8261999 19.3161264,11.8261999 L19.3161264,11.8261999 Z" id="Path" fill="#FFFFFF"></path>
                            <path d="M23.2018778,12.8398741 C24.2718673,12.8398741 24.2718673,11.150417 23.2018778,11.150417 C22.1318883,11.150417 22.1318883,12.8398741 23.2018778,12.8398741 L23.2018778,12.8398741 Z" id="Path" fill="#FFFFFF"></path>
                            <path d="M25.2855416,16.1624732 C26.3555311,16.1624732 26.3555311,14.473016 25.2855416,14.473016 C24.1592369,14.473016 24.1592369,16.1624732 25.2855416,16.1624732 L25.2855416,16.1624732 Z" id="Path" fill="#FFFFFF"></path>
                            <path d="M22.9766169,24.1592369 C24.0466064,24.1592369 24.0466064,22.4697797 22.9766169,22.4697797 C21.9066274,22.4697797 21.9066274,24.1592369 22.9766169,24.1592369 L22.9766169,24.1592369 Z" id="Path" fill="#FFFFFF"></path>
                            <path d="M15.8245817,25.3981721 C16.8945712,25.3981721 16.8945712,23.708715 15.8245817,23.708715 C14.698277,23.708715 14.698277,25.3981721 15.8245817,25.3981721 L15.8245817,25.3981721 Z" id="Path" fill="#FFFFFF"></path>
                            <path d="M7.20835039,23.5397693 C8.27833991,23.5397693 8.27833991,21.8503121 7.20835039,21.8503121 C6.08204565,21.8503121 6.08204565,23.5397693 7.20835039,23.5397693 L7.20835039,23.5397693 Z" id="Path" fill="#FFFFFF"></path>
                            <path d="M5.12468661,17.1761474 C6.19467612,17.1761474 6.19467612,15.4866903 5.12468661,15.4866903 C4.0546971,15.4866903 4.0546971,17.1761474 5.12468661,17.1761474 L5.12468661,17.1761474 Z" id="Path" fill="#FFFFFF"></path>
                            <path d="M1.85840284,21.9066274 C2.92839235,21.9066274 2.92839235,20.2171702 1.85840284,20.2171702 C0.732098087,20.2171702 0.732098087,21.9066274 1.85840284,21.9066274 L1.85840284,21.9066274 Z" id="Path" fill="#FFFFFF"></path>
                            <path d="M4.27995805,9.96779703 C5.34994756,9.96779703 5.34994756,8.27833991 4.27995805,8.27833991 C3.20996854,8.27833991 3.20996854,9.96779703 4.27995805,9.96779703 L4.27995805,9.96779703 Z" id="Path" fill="#FFFFFF"></path>
                            <path d="M15.9935274,13.8535484 C17.063517,13.8535484 17.063517,12.1640913 15.9935274,12.1640913 C14.9235379,12.1640913 14.9235379,13.8535484 15.9935274,13.8535484 L15.9935274,13.8535484 Z" id="Path" fill="#FFFFFF"></path>
                            <path d="M13.9661789,19.6540179 C15.0361684,19.6540179 15.0361684,17.9645608 13.9661789,17.9645608 C12.8961894,17.9645608 12.8961894,19.6540179 13.9661789,19.6540179 L13.9661789,19.6540179 Z" id="Path" fill="#FFFFFF"></path>
                            <path d="M12.5019827,13.4593418 C13.5719722,13.4593418 13.5719722,11.7698846 12.5019827,11.7698846 C11.4319932,11.7698846 11.4319932,13.4593418 12.5019827,13.4593418 L12.5019827,13.4593418 Z" id="Path" fill="#FFFFFF"></path>
                            <path d="M13.9661789,3.99838186 C15.0361684,3.99838186 15.0361684,2.30892474 13.9661789,2.30892474 C12.8961894,2.30892474 12.8961894,3.99838186 13.9661789,3.99838186 L13.9661789,3.99838186 Z" id="Path" fill="#FFFFFF"></path>
                            <path d="M21.343475,20.0482245 C22.4134645,20.0482245 22.4134645,18.3587674 21.343475,18.3587674 C20.2734855,18.3587674 20.2734855,20.0482245 21.343475,20.0482245 L21.343475,20.0482245 Z" id="Path" fill="#FFFFFF"></path>
                            <path d="M18.2461369,15.5430055 C19.3161264,15.5430055 19.3161264,13.8535484 18.2461369,13.8535484 C17.1761474,13.8535484 17.1761474,15.5430055 18.2461369,15.5430055 L18.2461369,15.5430055 Z" id="Path" fill="#FFFFFF"></path>
                            <path d="M19.0908655,31.536533 C20.160855,31.536533 20.160855,29.8470759 19.0908655,29.8470759 C18.020876,29.8470759 18.020876,31.536533 19.0908655,31.536533 L19.0908655,31.536533 Z" id="Path" fill="#FFFFFF"></path>
                            <path d="M10.2493732,29.0586625 C11.3193627,29.0586625 11.3193627,27.3692054 10.2493732,27.3692054 C9.17938371,27.3692054 9.17938371,29.0586625 10.2493732,29.0586625 L10.2493732,29.0586625 Z" id="Path" fill="#FFFFFF"></path>
                            <path d="M5.74415422,33.1696749 C6.81414373,33.1696749 6.81414373,31.4802177 5.74415422,31.4802177 C4.67416471,31.4802177 4.67416471,33.1696749 5.74415422,33.1696749 L5.74415422,33.1696749 Z" id="Path" fill="#FFFFFF"></path>
                            <path d="M6.36362183,43.4753633 C7.43361134,43.4753633 7.43361134,41.7859062 6.36362183,41.7859062 C5.29363232,41.7859062 5.29363232,43.4753633 6.36362183,43.4753633 L6.36362183,43.4753633 Z" id="Path" fill="#FFFFFF"></path>
                            <path d="M21.9629426,51.8663337 C23.0329321,51.8663337 23.0329321,50.1768766 21.9629426,50.1768766 C20.8929531,50.1768766 20.8929531,51.8663337 21.9629426,51.8663337 L21.9629426,51.8663337 Z" id="Path" fill="#FFFFFF"></path>
                            <path d="M37.3933177,55.3578784 C38.4633072,55.3578784 38.4633072,53.6684213 37.3933177,53.6684213 C36.2670129,53.6684213 36.2670129,55.3578784 37.3933177,55.3578784 L37.3933177,55.3578784 Z" id="Path" fill="#FFFFFF"></path>
                            <path d="M42.1237976,50.6273985 C43.1937871,50.6273985 43.1937871,48.9379414 42.1237976,48.9379414 C40.9974929,48.9379414 40.9974929,50.6273985 42.1237976,50.6273985 L42.1237976,50.6273985 Z" id="Path" fill="#FFFFFF"></path>
                            <path d="M47.0232233,54.9636718 C48.0932128,54.9636718 48.0932128,53.2742146 47.0232233,53.2742146 C45.9532338,53.2742146 45.9532338,54.9636718 47.0232233,54.9636718 L47.0232233,54.9636718 Z" id="Path" fill="#FFFFFF"></path>
                            <path d="M50.9089747,46.966908 C51.9789642,46.966908 51.9789642,45.2774509 50.9089747,45.2774509 C49.8389852,45.2774509 49.8389852,46.966908 50.9089747,46.966908 L50.9089747,46.966908 Z" id="Path" fill="#FFFFFF"></path>
                            <path d="M62.6225441,46.966908 C63.6925336,46.966908 63.6925336,45.2774509 62.6225441,45.2774509 C61.5525545,45.2774509 61.5525545,46.966908 62.6225441,46.966908 L62.6225441,46.966908 Z" id="Path" fill="#FFFFFF"></path>
                            <path d="M64.3120012,53.1052689 C65.3819907,53.1052689 65.3819907,51.4158118 64.3120012,51.4158118 C63.1856964,51.4158118 63.1856964,53.1052689 64.3120012,53.1052689 L64.3120012,53.1052689 Z" id="Path" fill="#FFFFFF"></path>
                            <path d="M69.6056335,53.7247365 C70.675623,53.7247365 70.675623,52.0352794 69.6056335,52.0352794 C68.535644,52.0352794 68.535644,53.7247365 69.6056335,53.7247365 L69.6056335,53.7247365 Z" id="Path" fill="#FFFFFF"></path>
                            <path d="M69.6056335,46.1221795 C70.675623,46.1221795 70.675623,44.4327224 69.6056335,44.4327224 C68.535644,44.4327224 68.535644,46.1221795 69.6056335,46.1221795 L69.6056335,46.1221795 Z" id="Path" fill="#FFFFFF"></path>
                            <path d="M69.6056335,41.8422214 C70.675623,41.8422214 70.675623,40.1527643 69.6056335,40.1527643 C68.535644,40.1527643 68.535644,41.8422214 69.6056335,41.8422214 L69.6056335,41.8422214 Z" id="Path" fill="#FFFFFF"></path>
                            <path d="M52.5984318,54.3442041 C53.6684213,54.3442041 53.6684213,52.654747 52.5984318,52.654747 C51.472127,52.654747 51.472127,54.3442041 52.5984318,54.3442041 L52.5984318,54.3442041 Z" id="Path" fill="#FFFFFF"></path>
                            <path d="M29.7907606,50.8526594 C30.8607501,50.8526594 30.8607501,49.1632023 29.7907606,49.1632023 C28.6644559,49.1632023 28.6644559,50.8526594 29.7907606,50.8526594 L29.7907606,50.8526594 Z" id="Path" fill="#FFFFFF"></path>
                            <path d="M22.1882036,43.0248414 C23.2581931,43.0248414 23.2581931,41.3353843 22.1882036,41.3353843 C21.0618988,41.3353843 21.0618988,43.0248414 22.1882036,43.0248414 L22.1882036,43.0248414 Z" id="Path" fill="#FFFFFF"></path>
                            <path d="M23.4271388,28.0449883 C24.4971283,28.0449883 24.4971283,26.3555311 23.4271388,26.3555311 C22.300834,26.3555311 22.300834,28.0449883 23.4271388,28.0449883 L23.4271388,28.0449883 Z" id="Path" fill="#FFFFFF"></path>
                            <path d="M12.7272437,46.966908 C13.7972332,46.966908 13.7972332,45.2774509 12.7272437,45.2774509 C11.6572542,45.2774509 11.6572542,46.966908 12.7272437,46.966908 L12.7272437,46.966908 Z" id="Path" fill="#FFFFFF"></path>
                            <path d="M7.20835039,52.4858013 C8.27833991,52.4858013 8.27833991,50.7963442 7.20835039,50.7963442 C6.08204565,50.7963442 6.08204565,52.4858013 7.20835039,52.4858013 L7.20835039,52.4858013 Z" id="Path" fill="#FFFFFF"></path>
                            <path d="M11.4883084,58.4552165 C12.558298,58.4552165 12.558298,56.7657594 11.4883084,56.7657594 C10.4183189,56.7657594 10.4183189,58.4552165 11.4883084,58.4552165 L11.4883084,58.4552165 Z" id="Path" fill="#FFFFFF"></path>
                            <path d="M18.8656045,59.0746841 C19.9355941,59.0746841 19.9355941,57.385227 18.8656045,57.385227 C17.795615,57.385227 17.795615,59.0746841 18.8656045,59.0746841 L18.8656045,59.0746841 Z" id="Path" fill="#FFFFFF"></path>
                            <path d="M30.1849673,59.4688908 C31.2549568,59.4688908 31.2549568,57.7794336 30.1849673,57.7794336 C29.1149778,57.7794336 29.1149778,59.4688908 30.1849673,59.4688908 L30.1849673,59.4688908 Z" id="Path" fill="#FFFFFF"></path>
                            <path d="M38.8011986,58.8494231 C39.8711881,58.8494231 39.8711881,57.159966 38.8011986,57.159966 C37.7312091,57.159966 37.7312091,58.8494231 38.8011986,58.8494231 L38.8011986,58.8494231 Z" id="Path" fill="#FFFFFF"></path>
                            <path d="M38.4069919,48.9942566 C39.4769815,48.9942566 39.4769815,47.3047995 38.4069919,47.3047995 C37.3370024,47.3047995 37.3370024,48.9942566 38.4069919,48.9942566 L38.4069919,48.9942566 Z" id="Path" fill="#FFFFFF"></path>
                            <path d="M33.676512,47.7553214 C34.7465015,47.7553214 34.7465015,46.0658642 33.676512,46.0658642 C32.6065225,46.0658642 32.6065225,47.7553214 33.676512,47.7553214 L33.676512,47.7553214 Z" id="Path" fill="#FFFFFF"></path>
                            <path d="M27.9323578,42.0111671 C29.0023473,42.0111671 29.0023473,40.32171 27.9323578,40.32171 C26.8623683,40.32171 26.8623683,42.0111671 27.9323578,42.0111671 L27.9323578,42.0111671 Z" id="Path" fill="#FFFFFF"></path>
                            <path d="M27.5381511,35.2533387 C28.6081406,35.2533387 28.6081406,33.5638815 27.5381511,33.5638815 C26.4118464,33.5638815 26.4118464,35.2533387 27.5381511,35.2533387 L27.5381511,35.2533387 Z" id="Path" fill="#FFFFFF"></path>
                            <path d="M27.3128902,29.9033911 C28.3828797,29.9033911 28.3828797,28.213934 27.3128902,28.213934 C26.2429007,28.213934 26.2429007,29.9033911 27.3128902,29.9033911 L27.3128902,29.9033911 Z" id="Path" fill="#FFFFFF"></path>
                            <path d="M26.6934226,20.2171702 C27.7634121,20.2171702 27.7634121,18.5277131 26.6934226,18.5277131 C25.623433,18.5277131 25.623433,20.2171702 26.6934226,20.2171702 L26.6934226,20.2171702 Z" id="Path" fill="#FFFFFF"></path>
                            <path d="M12.5019827,34.8028168 C13.5719722,34.8028168 13.5719722,33.1133596 12.5019827,33.1133596 C11.4319932,33.1133596 11.4319932,34.8028168 12.5019827,34.8028168 L12.5019827,34.8028168 Z" id="Path" fill="#FFFFFF"></path>
                            <path d="M12.5019827,41.8422214 C13.5719722,41.8422214 13.5719722,40.1527643 12.5019827,40.1527643 C11.4319932,40.1527643 11.4319932,41.8422214 12.5019827,41.8422214 L12.5019827,41.8422214 Z" id="Path" fill="#FFFFFF"></path>
                            <path d="M16.6129951,37.7312091 C17.6829846,37.7312091 17.6829846,36.041752 16.6129951,36.041752 C15.5430055,36.041752 15.5430055,37.7312091 16.6129951,37.7312091 L16.6129951,37.7312091 Z" id="Path" fill="#FFFFFF"></path>
                            <path d="M7.37729611,38.5196224 C8.44728562,38.5196224 8.44728562,36.8301653 7.37729611,36.8301653 C6.3073066,36.8301653 6.3073066,38.5196224 7.37729611,38.5196224 L7.37729611,38.5196224 Z" id="Path" fill="#FFFFFF"></path>
                            <path d="M1.23893522,38.5196224 C2.30892474,38.5196224 2.30892474,36.8301653 1.23893522,36.8301653 C0.112630475,36.8301653 0.112630475,38.5196224 1.23893522,38.5196224 L1.23893522,38.5196224 Z" id="Path" fill="#FFFFFF"></path>
                            <path d="M16.2187884,45.8969185 C17.2887779,45.8969185 17.2887779,44.2074614 16.2187884,44.2074614 C15.1487989,44.2074614 15.1487989,45.8969185 16.2187884,45.8969185 L16.2187884,45.8969185 Z" id="Path" fill="#FFFFFF"></path>
                            <path d="M15.3740598,55.1889327 C16.4440493,55.1889327 16.4440493,53.4994756 15.3740598,53.4994756 C14.3040703,53.4994756 14.3040703,55.1889327 15.3740598,55.1889327 L15.3740598,55.1889327 Z" id="Path" fill="#FFFFFF"></path>
                            <path d="M17.063517,51.0779204 C18.1335065,51.0779204 18.1335065,49.3884633 17.063517,49.3884633 C15.9372122,49.3884633 15.9372122,51.0779204 17.063517,51.0779204 L17.063517,51.0779204 Z" id="Path" fill="#FFFFFF"></path>
                            <path d="M22.3571493,36.4922739 C23.4271388,36.4922739 23.4271388,34.8028168 22.3571493,34.8028168 C21.2871598,34.8028168 21.2871598,36.4922739 22.3571493,36.4922739 L22.3571493,36.4922739 Z" id="Path" fill="#FFFFFF"></path>
                            <path d="M22.9766169,47.1358538 C24.0466064,47.1358538 24.0466064,45.4463966 22.9766169,45.4463966 C21.9066274,45.4463966 21.9066274,47.1358538 22.9766169,47.1358538 L22.9766169,47.1358538 Z" id="Path" fill="#FFFFFF"></path>
                            <path d="M25.0602807,51.8663337 C26.1302702,51.8663337 26.1302702,50.1768766 25.0602807,50.1768766 C23.9902912,50.1768766 23.9902912,51.8663337 25.0602807,51.8663337 L25.0602807,51.8663337 Z" id="Path" fill="#FFFFFF"></path>
                            <path d="M25.0602807,58.0610098 C26.1302702,58.0610098 26.1302702,56.3715527 25.0602807,56.3715527 C23.9902912,56.3715527 23.9902912,58.0610098 25.0602807,58.0610098 L25.0602807,58.0610098 Z" id="Path" fill="#FFFFFF"></path>
                            <path d="M21.9629426,61.1020326 C23.0329321,61.1020326 23.0329321,59.4125755 21.9629426,59.4125755 C20.8929531,59.4125755 20.8929531,61.1020326 21.9629426,61.1020326 L21.9629426,61.1020326 Z" id="Path" fill="#FFFFFF"></path>
                            <path d="M32.8317834,52.880008 C33.901773,52.880008 33.901773,51.1905509 32.8317834,51.1905509 C31.7617939,51.1905509 31.7617939,52.880008 32.8317834,52.880008 L32.8317834,52.880008 Z" id="Path" fill="#FFFFFF"></path>
                            <path d="M33.0570444,58.4552165 C34.1270339,58.4552165 34.1270339,56.7657594 33.0570444,56.7657594 C31.9870549,56.7657594 31.9870549,58.4552165 33.0570444,58.4552165 L33.0570444,58.4552165 Z" id="Path" fill="#FFFFFF"></path>
                            <path d="M43.3627328,58.4552165 C44.4327224,58.4552165 44.4327224,56.7657594 43.3627328,56.7657594 C42.2364281,56.7657594 42.2364281,58.4552165 43.3627328,58.4552165 L43.3627328,58.4552165 Z" id="Path" fill="#FFFFFF"></path>
                            <path d="M46.6290166,50.0079309 C47.6990061,50.0079309 47.6990061,48.3184737 46.6290166,48.3184737 C45.5590271,48.3184737 45.5590271,50.0079309 46.6290166,50.0079309 L46.6290166,50.0079309 Z" id="Path" fill="#FFFFFF"></path>
                            <path d="M46.009549,45.8969185 C47.0795385,45.8969185 47.0795385,44.2074614 46.009549,44.2074614 C44.9395595,44.2074614 44.9395595,45.8969185 46.009549,45.8969185 L46.009549,45.8969185 Z" id="Path" fill="#FFFFFF"></path>
                            <path d="M40.8848624,45.7279728 C41.9548519,45.7279728 41.9548519,44.0385157 40.8848624,44.0385157 C39.7585576,44.0385157 39.7585576,45.7279728 40.8848624,45.7279728 L40.8848624,45.7279728 Z" id="Path" fill="#FFFFFF"></path>
                            <path d="M56.2589222,45.1085052 C57.3289117,45.1085052 57.3289117,43.4190481 56.2589222,43.4190481 C55.1889327,43.4190481 55.1889327,45.1085052 56.2589222,45.1085052 L56.2589222,45.1085052 Z" id="Path" fill="#FFFFFF"></path>
                            <path d="M55.019987,49.3884633 C56.0899765,49.3884633 56.0899765,47.6990061 55.019987,47.6990061 C53.9499975,47.6990061 53.9499975,49.3884633 55.019987,49.3884633 L55.019987,49.3884633 Z" id="Path" fill="#FFFFFF"></path>
                            <path d="M58.342586,48.9942566 C59.4125755,48.9942566 59.4125755,47.3047995 58.342586,47.3047995 C57.2725965,47.3047995 57.2162813,48.9942566 58.342586,48.9942566 L58.342586,48.9942566 Z" id="Path" fill="#FFFFFF"></path>
                            <path d="M57.9483793,56.9910203 C59.0183689,56.9910203 59.0183689,55.3015632 57.9483793,55.3015632 C56.8220746,55.3015632 56.8220746,56.9910203 57.9483793,56.9910203 L57.9483793,56.9910203 Z" id="Path" fill="#FFFFFF"></path>
                            <path d="M61.8341307,57.8357489 C62.9041202,57.8357489 62.9041202,56.1462917 61.8341307,56.1462917 C60.7641412,56.1462917 60.707826,57.8357489 61.8341307,57.8357489 L61.8341307,57.8357489 Z" id="Path" fill="#FFFFFF"></path>
                            <path d="M61.6088698,52.880008 C62.6788593,52.880008 62.6788593,51.1905509 61.6088698,51.1905509 C60.5388803,51.1905509 60.5388803,52.880008 61.6088698,52.880008 L61.6088698,52.880008 Z" id="Path" fill="#FFFFFF"></path>
                            <path d="M52.1479099,59.4688908 C53.2178994,59.4688908 53.2178994,57.7794336 52.1479099,57.7794336 C51.0779204,57.7794336 51.0779204,59.4688908 52.1479099,59.4688908 L52.1479099,59.4688908 Z" id="Path" fill="#FFFFFF"></path>
                            <path d="M60.8204565,42.6306348 C61.890446,42.6306348 61.890446,40.9411776 60.8204565,40.9411776 C59.6941517,40.9411776 59.6941517,42.6306348 60.8204565,42.6306348 L60.8204565,42.6306348 Z" id="Path" fill="#FFFFFF"></path>
                            <path d="M65.9451431,42.4053738 C67.0151326,42.4053738 67.0151326,40.7159167 65.9451431,40.7159167 C64.8188383,40.7159167 64.8188383,42.4053738 65.9451431,42.4053738 L65.9451431,42.4053738 Z" id="Path" fill="#FFFFFF"></path>
                            <path d="M66.1140888,46.1221795 C67.1840783,46.1221795 67.1840783,44.4327224 66.1140888,44.4327224 C65.0440993,44.4327224 65.0440993,46.1221795 66.1140888,46.1221795 L66.1140888,46.1221795 Z" id="Path" fill="#FFFFFF"></path>
                            <path d="M66.1140888,52.4858013 C67.1840783,52.4858013 67.1840783,50.7963442 66.1140888,50.7963442 C65.0440993,50.7963442 65.0440993,52.4858013 66.1140888,52.4858013 L66.1140888,52.4858013 Z" id="Path" fill="#FFFFFF"></path>
                            <path d="M66.1140888,56.202607 C67.1840783,56.202607 67.1840783,54.5131499 66.1140888,54.5131499 C65.0440993,54.5131499 65.0440993,56.202607 66.1140888,56.202607 L66.1140888,56.202607 Z" id="Path" fill="#FFFFFF"></path>
                        </g>
                    </g>
                    <g id="Layer_5" transform="translate(144.759580, 43.925885)" fill="#FECD43" fill-rule="nonzero">
                        <path d="M4.39258852,1.68945712 C4.39258852,1.68945712 -0.168945712,-1.57682665 0.506837137,2.53418569 C1.18261999,6.58888278 13.515657,15.7119513 18.6966588,17.2324627 C18.6966588,17.2324627 19.9919093,10.5309494 18.6966588,9.23569894 C17.4014084,7.94044848 4.39258852,1.68945712 4.39258852,1.68945712 Z" id="Path"></path>
                    </g>
                    <g id="Layer_4" transform="translate(147.012189, 34.915447)">
                        <path d="M21.343475,11.9951456 C21.343475,11.9951456 15.2614294,17.5703541 15.0361684,20.9492683 C15.0361684,20.9492683 13.3467113,20.5550617 10.4183189,18.8092893 C7.88413324,17.3450931 4.505219,14.8672227 0.4505219,10.8125256 C0.4505219,10.8125256 7.65887229,6.64519802 9.01043799,1.46419617 C9.06675323,1.23893522 9.17938371,1.01367427 9.29201418,0.844728562 C11.375678,-2.2526095 21.343475,11.9951456 21.343475,11.9951456 Z" id="Path" fill="#BB8068"></path>
                        <path d="M21.343475,11.9951456 C21.343475,11.9951456 15.2614294,17.5703541 15.0361684,20.9492683 C15.0361684,20.9492683 13.3467113,20.5550617 10.4183189,18.8092893 C10.4183189,18.8092893 10.0804275,5.46257803 9.29201418,0.901043799 C11.375678,-2.2526095 21.343475,11.9951456 21.343475,11.9951456 Z" id="Path" fill="#955F4D"></path>
                    </g>
                    <g id="Layer_3" transform="translate(155.459475, 16.331419)" fill="#BB8068">
                        <path d="M28.6081406,5.68783898 C28.6081406,5.68783898 28.7207711,14.1351246 27.2565749,17.8519303 C25.7923788,21.5687359 27.9323578,23.4271388 27.9323578,23.4271388 C27.9323578,23.4271388 26.6371073,24.5534435 24.666074,23.4271388 C24.666074,23.4271388 23.2581931,24.7787045 23.708715,25.7923788 C24.1592369,26.806053 21.5687359,26.2992159 20.3298007,25.3418569 C19.0345503,24.3844978 18.5277131,25.5108026 19.0345503,26.2992159 C19.5413874,27.0876292 22.1882036,28.3828797 21.5687359,29.0586625 C20.9492683,29.7344454 20.2171702,28.9460321 20.2171702,29.5654997 C20.2171702,30.1849673 20.8366379,33.2259901 18.4150826,32.8880987 C16.0498427,32.5502073 4.56153423,26.0739549 3.54785996,25.1729111 C2.53418569,24.2155521 0.337891425,23.0329321 0.563152375,20.1045398 C0.844728562,17.1198322 3.54785996,0.563152375 12.3893522,0.506837137 C21.2308445,0.4505219 28.6081406,5.68783898 28.6081406,5.68783898 Z" id="Path"></path>
                    </g>
                    <g id="Layer_2" transform="translate(150.954256, 2.252609)" fill="#101622">
                        <path d="M5.96941517,3.66049043 C5.96941517,3.66049043 4.33627328,7.54624182 5.96941517,9.17938371 C5.96941517,9.17938371 -0.4505219,11.7135694 1.3515657,17.5703541 C3.1536533,23.4271388 3.88575138,28.9460321 1.01367427,30.5791739 C-1.85840284,32.2123158 5.06837137,37.1680567 7.77150277,36.7175348 C10.4746342,36.2670129 11.6572542,30.8607501 11.2067323,30.128652 C10.7562104,29.396554 8.84149228,24.666074 13.5719722,22.6950407 C18.3024522,20.7240074 19.4287569,26.9186835 18.6403436,29.171293 C17.9082455,31.4239025 21.6250512,30.6354892 21.6250512,30.6354892 C21.6250512,30.6354892 22.6387255,22.300834 25.848694,21.5687359 C29.0586625,20.8366379 39.0264596,22.4134645 38.7448834,14.1351246 C38.7448834,14.1351246 32.7754682,16.1061579 32.7754682,12.5019827 C32.7754682,8.89780752 29.171293,8.16570943 29.171293,8.16570943 C29.171293,8.16570943 28.5518254,0.732098087 21.6250512,4.56153423 C21.6250512,4.56153423 18.5277131,-1.12630475 14.8109075,0.957359037 C11.0941018,3.09733806 7.43361134,6.92677421 5.96941517,3.66049043 Z" id="Path"></path>
                    </g>
                </g>
            </g>
        </g>
    </g>
</svg>