<svg width="1000" height="667" viewBox="0 0 1000 667" fill="none" xmlns="http://www.w3.org/2000/svg">
<g clip-path="url(#clip0_3_18)">
<path d="M418.868 143.147C402.426 140.452 374.663 137.487 356.873 136.948C339.083 136.139 315.364 136.678 304.313 138.026C293.261 139.374 274.393 143.417 262.534 146.921C250.135 150.694 233.693 158.511 223.45 165.25C211.86 173.067 203.504 181.153 197.844 190.048C192.183 199.751 189.488 207.837 188.679 218.35C188.14 226.705 189.218 238.296 191.375 244.226C193.261 250.155 199.191 259.859 204.313 265.519C209.703 271.449 218.868 279.536 224.798 283.848L235.579 291.665L346.092 291.395C282.48 259.859 259.569 246.112 251.752 239.374C243.666 232.366 236.388 222.932 233.423 215.654C229.38 205.951 228.841 201.638 231.267 193.013C232.614 187.083 236.658 178.727 240.162 174.414C243.666 170.102 251.213 163.902 257.143 160.398C263.073 156.894 276.55 152.312 286.792 149.886C297.035 147.729 315.364 145.843 327.224 145.843C339.353 145.843 358.221 148.269 370.35 151.234C382.21 153.929 399.73 159.589 409.434 163.363C419.137 167.137 437.197 175.762 449.865 182.231C462.534 188.969 473.046 194.091 473.315 193.821C473.854 193.282 474.933 184.926 476.011 175.223L478.167 157.163C455.256 150.425 435.31 146.112 418.868 143.147Z" fill="white"/>
<path d="M615.633 290.048V144.495C569.542 143.147 562.803 143.956 561.995 146.382C561.456 148.269 561.186 181.422 561.186 219.967L561.725 290.048H615.633Z" fill="white"/>
<path d="M111.59 345.303V341.419H0V345.303H111.59Z" fill="white"/>
<path d="M998.652 336.029H889.488V339.913L998.652 340.072V336.029Z" fill="white"/>
<path d="M490.566 388.43L421.833 388.161L430.189 397.056C435.041 401.907 441.51 411.341 444.474 418.08C447.979 425.896 449.865 435.87 449.865 446.382C449.865 456.085 447.979 466.597 445.014 473.336C442.318 478.996 434.771 488.7 428.302 494.63C421.563 500.56 411.59 507.298 405.66 509.994C399.731 512.419 386.793 515.923 377.359 517.81C366.846 519.967 350.943 520.506 338.275 519.697C326.415 518.619 307.008 514.845 295.148 511.341C283.289 507.568 264.96 500.56 254.717 495.977C244.205 491.126 227.224 482.5 216.981 476.57C206.469 470.91 197.305 466.867 196.227 468.215C195.418 469.562 193.801 477.648 192.992 486.813L191.375 502.985C221.563 512.15 237.736 516.463 246.631 518.619C255.526 520.775 271.698 524.279 283.019 526.166C294.07 528.053 319.407 529.401 339.623 529.401C363.612 529.401 383.019 527.783 397.574 524.549C409.434 522.123 427.493 515.923 438.005 511.341C448.248 506.489 462.803 497.325 470.081 490.587C477.898 483.309 486.253 472.258 490.836 462.554C497.035 449.347 498.652 442.608 498.652 426.705C498.652 415.384 496.766 403.255 494.609 397.864L490.566 388.43Z" fill="white"/>
<path d="M617.251 514.846L615.903 389.509C576.011 388.43 563.612 388.97 562.264 390.048C560.916 390.856 560.108 421.315 560.377 457.433L560.647 522.932H805.93C805.93 493.821 805.391 485.196 804.582 485.196C804.043 485.196 797.574 487.891 790.566 490.856C783.558 493.821 765.499 499.212 750.674 502.716C735.849 506.49 712.129 510.533 697.574 512.15C683.019 513.498 659.03 514.846 644.205 514.846H617.251Z" fill="white"/>
<path d="M199.111 310.961C196.658 309.703 194.048 308.634 191.28 307.754C188.513 306.81 185.871 306.339 183.356 306.339C179.96 306.339 177.255 307.093 175.243 308.603C173.293 310.112 172.318 312.188 172.318 314.829C172.318 316.716 173.01 318.382 174.394 319.829C175.777 321.213 177.538 322.439 179.677 323.508C181.815 324.515 184.079 325.489 186.469 326.433C188.544 327.188 190.588 328.099 192.601 329.169C194.677 330.175 196.532 331.433 198.167 332.942C199.802 334.452 201.092 336.339 202.035 338.603C203.041 340.804 203.544 343.54 203.544 346.81C203.544 350.395 202.633 353.697 200.809 356.716C198.985 359.672 196.375 362.03 192.978 363.791C189.582 365.552 185.431 366.433 180.526 366.433C177.695 366.433 174.897 366.118 172.129 365.489C169.425 364.861 166.846 364.012 164.394 362.942C161.941 361.81 159.677 360.552 157.601 359.169L162.507 350.584C164.016 351.716 165.746 352.754 167.695 353.697C169.645 354.64 171.658 355.395 173.733 355.961C175.809 356.464 177.758 356.716 179.582 356.716C181.532 356.716 183.45 356.401 185.337 355.772C187.287 355.144 188.89 354.106 190.148 352.659C191.469 351.213 192.129 349.295 192.129 346.905C192.129 344.955 191.563 343.288 190.431 341.905C189.299 340.521 187.821 339.326 185.997 338.32C184.236 337.25 182.287 336.307 180.148 335.489C178.01 334.672 175.809 333.76 173.544 332.754C171.343 331.747 169.299 330.521 167.412 329.074C165.526 327.565 163.985 325.741 162.79 323.603C161.595 321.464 160.997 318.823 160.997 315.678C160.997 311.905 161.878 308.634 163.639 305.867C165.4 303.099 167.821 300.898 170.903 299.263C174.048 297.628 177.664 296.747 181.752 296.622C186.595 296.622 190.714 297.219 194.111 298.414C197.57 299.546 200.62 300.93 203.261 302.565L199.111 310.961ZM243.264 367.376C239.617 367.376 236.598 366.276 234.208 364.074C231.818 361.81 230.56 358.917 230.434 355.395V325.773H241V351.622C241.126 353.571 241.692 355.175 242.698 356.433C243.705 357.691 245.308 358.32 247.51 358.32C249.585 358.32 251.44 357.691 253.076 356.433C254.711 355.112 255.969 353.32 256.849 351.056C257.793 348.791 258.264 346.244 258.264 343.414V325.773H268.83V365.678H259.302L258.453 356.905L258.736 358.32C257.919 360.018 256.755 361.59 255.246 363.037C253.736 364.42 251.944 365.489 249.868 366.244C247.856 366.999 245.654 367.376 243.264 367.376ZM307.558 325.773L308.501 337.093L308.124 335.489C309.256 333.099 310.798 331.056 312.747 329.357C314.76 327.596 316.803 326.276 318.879 325.395C320.954 324.452 322.652 323.98 323.973 323.98L323.501 334.546C320.482 334.295 317.841 334.861 315.577 336.244C313.377 337.565 311.647 339.326 310.388 341.527C309.194 343.729 308.596 346.056 308.596 348.508V365.678H298.03V325.773H307.558ZM366.72 366.716C362.003 366.716 357.976 365.804 354.644 363.98C351.31 362.156 348.763 359.64 347.003 356.433C345.24 353.163 344.361 349.483 344.361 345.395C344.361 341.37 345.367 337.754 347.38 334.546C349.391 331.339 352.097 328.791 355.493 326.905C358.952 324.955 362.757 323.98 366.908 323.98C372.38 323.98 376.876 325.584 380.399 328.791C383.984 331.936 386.372 336.401 387.569 342.188L355.399 353.037L352.946 347.093L378.04 338.131L375.871 339.357C375.178 337.471 374.046 335.835 372.474 334.452C370.965 333.068 368.825 332.376 366.059 332.376C363.857 332.376 361.908 332.911 360.21 333.98C358.512 334.986 357.159 336.433 356.154 338.32C355.21 340.144 354.739 342.313 354.739 344.829C354.739 347.408 355.272 349.672 356.342 351.622C357.41 353.571 358.857 355.081 360.682 356.15C362.504 357.156 364.58 357.659 366.908 357.659C368.542 357.659 370.116 357.376 371.625 356.81C373.135 356.244 374.55 355.489 375.871 354.546L380.682 362.376C378.606 363.697 376.31 364.766 373.795 365.584C371.342 366.339 368.984 366.716 366.72 366.716ZM412.588 292.093H423.154V365.678H412.588V292.093ZM455.571 384.829L482.081 325.773H491.704L465.949 384.829H455.571ZM465.854 365.961L446.42 325.773H458.307L473.968 360.584L465.854 365.961ZM561.992 296.999H573.03V355.112H606.898V365.678H561.992V296.999ZM652.925 366.716C648.208 366.716 644.183 365.804 640.849 363.98C637.518 362.156 634.97 359.64 633.208 356.433C631.447 353.163 630.566 349.483 630.566 345.395C630.566 341.37 631.574 337.754 633.585 334.546C635.598 331.339 638.302 328.791 641.698 326.905C645.159 324.955 648.962 323.98 653.113 323.98C658.585 323.98 663.084 325.584 666.604 328.791C670.189 331.936 672.58 336.401 673.774 342.188L641.604 353.037L639.151 347.093L664.245 338.131L662.076 339.357C661.386 337.471 660.253 335.835 658.679 334.452C657.17 333.068 655.032 332.376 652.264 332.376C650.065 332.376 648.113 332.911 646.415 333.98C644.717 334.986 643.367 336.433 642.359 338.32C641.415 340.144 640.943 342.313 640.943 344.829C640.943 347.408 641.48 349.672 642.547 351.622C643.617 353.571 645.065 355.081 646.887 356.15C648.712 357.156 650.787 357.659 653.113 357.659C654.749 357.659 656.321 357.376 657.83 356.81C659.34 356.244 660.755 355.489 662.076 354.546L666.887 362.376C664.811 363.697 662.518 364.766 660 365.584C657.547 366.339 655.189 366.716 652.925 366.716ZM715.585 366.716C711.811 366.716 708.385 365.93 705.302 364.357C702.283 362.785 699.895 360.458 698.132 357.376C696.372 354.232 695.491 350.364 695.491 345.773C695.491 341.244 696.404 337.376 698.226 334.169C700.113 330.898 702.566 328.382 705.585 326.622C708.669 324.861 712 323.98 715.585 323.98C719.423 323.98 722.504 324.735 724.83 326.244C727.221 327.754 729.076 329.546 730.396 331.622L729.83 333.131L730.868 325.773H740.585V365.678H730.019V355.961L731.057 358.508C730.806 358.886 730.302 359.515 729.547 360.395C728.792 361.213 727.755 362.125 726.434 363.131C725.113 364.137 723.542 364.986 721.717 365.678C719.957 366.37 717.914 366.716 715.585 366.716ZM718.509 358.037C720.396 358.037 722.094 357.691 723.604 356.999C725.178 356.307 726.499 355.332 727.566 354.074C728.698 352.816 729.518 351.307 730.019 349.546V340.867C729.518 339.232 728.698 337.816 727.566 336.622C726.434 335.364 725.051 334.389 723.415 333.697C721.844 333.005 720.084 332.659 718.132 332.659C715.995 332.659 714.013 333.194 712.189 334.263C710.367 335.332 708.887 336.81 707.755 338.697C706.687 340.584 706.151 342.754 706.151 345.206C706.151 347.596 706.717 349.766 707.849 351.716C708.981 353.665 710.491 355.206 712.377 356.339C714.264 357.471 716.31 358.037 718.509 358.037ZM786.119 366.716C782.345 366.716 778.981 365.835 776.024 364.074C773.07 362.313 770.741 359.798 769.043 356.527C767.345 353.257 766.496 349.452 766.496 345.112C766.496 340.647 767.41 336.842 769.232 333.697C771.057 330.552 773.542 328.163 776.685 326.527C779.892 324.829 783.477 323.98 787.439 323.98C790.334 323.98 793.1 324.546 795.741 325.678C798.383 326.747 800.491 328.32 802.062 330.395L801.873 333.98V292.093H812.345V365.678H801.779V356.716L802.817 359.263C800.806 361.401 798.383 363.194 795.553 364.64C792.787 366.024 789.642 366.716 786.119 366.716ZM789.515 357.754C791.59 357.754 793.415 357.408 794.987 356.716C796.623 356.024 798.005 355.049 799.138 353.791C800.334 352.471 801.213 350.93 801.779 349.169V340.678C801.278 339.043 800.429 337.596 799.232 336.339C798.1 335.081 796.685 334.106 794.987 333.414C793.288 332.722 791.466 332.376 789.515 332.376C787.251 332.376 785.175 332.911 783.288 333.98C781.466 335.049 779.987 336.527 778.854 338.414C777.722 340.301 777.156 342.471 777.156 344.923C777.156 347.313 777.722 349.483 778.854 351.433C779.987 353.382 781.496 354.923 783.383 356.056C785.27 357.188 787.315 357.754 789.515 357.754ZM853.523 366.527C850.504 366.527 847.609 365.993 844.844 364.923C842.138 363.854 839.844 362.282 837.957 360.206L842.485 354.263C844.245 355.961 845.976 357.219 847.674 358.037C849.434 358.791 851.1 359.169 852.674 359.169C853.868 359.169 854.938 359.043 855.882 358.791C856.887 358.477 857.674 358.005 858.24 357.376C858.868 356.747 859.183 355.898 859.183 354.829C859.183 353.571 858.741 352.596 857.863 351.905C856.981 351.15 855.849 350.552 854.466 350.112C853.081 349.609 851.636 349.137 850.127 348.697C846.666 347.628 844.089 346.056 842.391 343.98C840.693 341.905 839.844 339.515 839.844 336.81C839.844 334.735 840.377 332.754 841.448 330.867C842.515 328.917 844.151 327.313 846.353 326.056C848.553 324.798 851.321 324.169 854.655 324.169C857.674 324.169 860.283 324.515 862.485 325.206C864.749 325.835 866.855 326.936 868.806 328.508L864.749 334.829C863.617 333.76 862.264 332.942 860.693 332.376C859.183 331.747 857.798 331.401 856.542 331.339C855.41 331.276 854.402 331.433 853.523 331.81C852.642 332.125 851.919 332.596 851.353 333.225C850.849 333.854 850.598 334.578 850.598 335.395C850.534 336.653 850.943 337.659 851.825 338.414C852.768 339.169 853.962 339.766 855.41 340.206C856.855 340.647 858.302 341.118 859.749 341.622C861.698 342.188 863.429 342.974 864.938 343.98C866.448 344.986 867.609 346.213 868.429 347.659C869.307 349.043 869.749 350.773 869.749 352.848C869.749 355.238 869.151 357.502 867.957 359.64C866.76 361.716 864.968 363.382 862.58 364.64C860.189 365.898 857.17 366.527 853.523 366.527Z" fill="white"/>
</g>
<defs>
<clipPath id="clip0_3_18">
<rect width="1000" height="666.667" fill="white"/>
</clipPath>
</defs>
</svg>
