<svg width="167" height="52" viewBox="0 0 167 52" fill="none" xmlns="http://www.w3.org/2000/svg">
<path d="M39.0942 38.0766L41.3346 24.582H46.909C47.9193 24.582 48.7628 24.7643 49.4392 25.1289C50.1158 25.4891 50.5968 26.0075 50.8823 26.6839C51.1678 27.356 51.2336 28.1533 51.08 29.0759C50.9305 30.0071 50.5968 30.8 50.0784 31.4545C49.5644 32.1046 48.9011 32.601 48.0885 32.9436C47.2802 33.2863 46.3621 33.4576 45.3342 33.4576H41.809L42.2439 30.8878H45.1629C45.6505 30.8878 46.0722 30.8242 46.428 30.6967C46.7838 30.565 47.0671 30.3673 47.278 30.1037C47.4932 29.8357 47.636 29.4931 47.7063 29.0759C47.7722 28.6585 47.7414 28.3137 47.614 28.0414C47.491 27.7646 47.2736 27.5581 46.9617 27.4219C46.6542 27.2814 46.2589 27.2111 45.7757 27.2111H44.1679L42.3559 38.0766H39.0942ZM47.7129 31.9091L50.052 38.0766H46.4939L44.2272 31.9091H47.7129ZM61.929 24.582H65.184L63.741 33.2863C63.5741 34.2922 63.1898 35.1686 62.588 35.9154C61.9905 36.6577 61.2284 37.2332 60.3015 37.6418C59.3746 38.0458 58.3423 38.248 57.2046 38.248C56.0625 38.248 55.0982 38.0458 54.3119 37.6418C53.5256 37.2332 52.9568 36.6577 52.6053 35.9154C52.254 35.1686 52.1594 34.2922 52.322 33.2863L53.765 24.582H57.0267L55.6231 33.003C55.5485 33.4686 55.5836 33.8837 55.7286 34.2483C55.878 34.6086 56.1195 34.8941 56.4534 35.1048C56.7873 35.3114 57.1958 35.4146 57.679 35.4146C58.1666 35.4146 58.6125 35.3114 59.0166 35.1048C59.4207 34.8941 59.7546 34.6086 60.0182 34.2483C60.2818 33.8837 60.4508 33.4686 60.5255 33.003L61.929 24.582ZM64.988 38.0766L67.2284 24.582H72.8028C73.8131 24.582 74.6543 24.7775 75.3265 25.1685C75.9985 25.5593 76.4751 26.1063 76.7563 26.8091C77.0375 27.512 77.1011 28.3269 76.9474 29.2537C76.798 30.1894 76.4619 31.0043 75.9392 31.6982C75.4209 32.3923 74.7532 32.9305 73.9362 33.3126C73.1191 33.6948 72.19 33.8859 71.149 33.8859H67.7159L68.1442 31.3161H70.9776C71.474 31.3161 71.9023 31.2304 72.2625 31.0592C72.627 30.8878 72.9192 30.6485 73.1388 30.3409C73.3584 30.0334 73.5035 29.671 73.5738 29.2537C73.6396 28.8364 73.6133 28.4762 73.4946 28.1731C73.376 27.8656 73.1631 27.6283 72.8555 27.4615C72.5524 27.2946 72.157 27.2111 71.6695 27.2111H70.0617L68.2497 38.0766H64.988ZM77.0743 38.0766L79.3145 24.582H88.7239L88.2759 27.2308H82.1281L81.6801 29.9983H87.3467L86.8986 32.6537H81.232L80.784 35.4278H86.9316L86.4835 38.0766H77.0743ZM88.5262 38.0766L90.7665 24.582H100.176L99.7277 27.2308H93.5801L93.1321 29.9983H98.7987L98.3506 32.6537H92.684L92.236 35.4278H98.3836L97.9355 38.0766H88.5262ZM109.381 24.582L111.134 28.8452H111.239L114.441 24.582H118.217L113.038 31.3293L116.109 38.0766H112.452L110.633 33.7672H110.527L107.286 38.0766H103.484L108.801 31.3293L105.829 24.582H109.381ZM117.664 38.0766L119.904 24.582H125.478C126.489 24.582 127.33 24.7775 128.002 25.1685C128.674 25.5593 129.151 26.1063 129.432 26.8091C129.713 27.512 129.777 28.3269 129.623 29.2537C129.474 30.1894 129.137 31.0043 128.615 31.6982C128.096 32.3923 127.429 32.9305 126.612 33.3126C125.795 33.6948 124.865 33.8859 123.824 33.8859H120.391L120.82 31.3161H123.653C124.149 31.3161 124.578 31.2304 124.938 31.0592C125.303 30.8878 125.595 30.6485 125.814 30.3409C126.034 30.0334 126.179 29.671 126.249 29.2537C126.315 28.8364 126.289 28.4762 126.17 28.1731C126.052 27.8656 125.838 27.6283 125.531 27.4615C125.228 27.2946 124.833 27.2111 124.345 27.2111H122.737L120.925 38.0766H117.664ZM129.75 38.0766L131.99 24.582H141.399L140.951 27.2308H134.804L134.356 29.9983H140.022L139.574 32.6537H133.907L133.459 35.4278H139.607L139.159 38.0766H129.75ZM141.202 38.0766L143.442 24.582H149.017C150.027 24.582 150.87 24.7643 151.547 25.1289C152.224 25.4891 152.704 26.0075 152.99 26.6839C153.275 27.356 153.341 28.1533 153.187 29.0759C153.038 30.0071 152.704 30.8 152.185 31.4545C151.671 32.1046 151.009 32.601 150.196 32.9436C149.388 33.2863 148.47 33.4576 147.442 33.4576H143.916L144.351 30.8878H147.27C147.758 30.8878 148.18 30.8242 148.536 30.6967C148.891 30.565 149.174 30.3673 149.386 30.1037C149.601 29.8357 149.744 29.4931 149.814 29.0759C149.879 28.6585 149.849 28.3137 149.722 28.0414C149.599 27.7646 149.381 27.5581 149.069 27.4219C148.761 27.2814 148.366 27.2111 147.883 27.2111H146.275L144.463 38.0766H141.202ZM149.82 31.9091L152.159 38.0766H148.601L146.335 31.9091H149.82ZM154.983 27.2308L155.431 24.582H166.836L166.389 27.2308H162.297L160.505 38.0766H157.289L159.081 27.2308H154.983Z" fill="url(#paint0_linear_23_12)"/>
<path d="M13.8467 45.5862L23.111 39.6948L32.317 45.5862L23.1111 50.9999L13.8467 45.5862Z" fill="#E77829" stroke="white"/>
<path d="M1.02148 25.7733L9.42957 31.0776L1.02148 36.3818V25.7733Z" fill="#E77829" stroke="white"/>
<path d="M23.5329 25.4055V25.0899L23.2593 24.9325L1.00022 12.1241L1 1L33.6083 19.695V31.3012L23.5329 37.3786V25.4055Z" fill="url(#paint1_linear_23_12)" stroke="white"/>
<defs>
<linearGradient id="paint0_linear_23_12" x1="38.9163" y1="30.982" x2="166.619" y2="30.982" gradientUnits="userSpaceOnUse">
<stop stop-color="#076FD9"/>
<stop offset="0.9999" stop-color="#002286"/>
<stop offset="1" stop-color="#666666"/>
</linearGradient>
<linearGradient id="paint1_linear_23_12" x1="0.170695" y1="4.1349" x2="30.6586" y2="32.4957" gradientUnits="userSpaceOnUse">
<stop stop-color="#076FD9"/>
<stop offset="1" stop-color="#002286"/>
</linearGradient>
</defs>
</svg>
