<svg width="187" height="50" viewBox="0 0 187 50" fill="none" xmlns="http://www.w3.org/2000/svg">
<path d="M88.5 16.7188L76.3125 11.9531L87.875 28.5938L116.234 0L88.5 16.7188Z" fill="white"/>
<path d="M112.094 38.75L100.297 22.8906L73.4219 50L100.297 34.2969L112.094 38.75Z" fill="white"/>
<path d="M24.7892 31.4062L24.5392 28.9962C24.4992 28.5695 24.4159 28.2229 24.2892 27.9562C24.1626 27.6829 23.9692 27.4829 23.7092 27.3562C23.4492 27.2229 23.1026 27.1562 22.6692 27.1562L19.7792 27.1462V24.7562L22.7892 24.7462C23.4426 24.7462 23.9126 24.6029 24.1992 24.3162C24.4859 24.0295 24.6292 23.5995 24.6292 23.0262V22.8262C24.6292 22.2595 24.4859 21.8362 24.1992 21.5562C23.9192 21.2695 23.4459 21.1262 22.7792 21.1262H19.7592V18.6262H23.2292C24.7959 18.6262 25.9392 18.9295 26.6592 19.5362C27.3859 20.1429 27.7492 21.0162 27.7492 22.1562V22.4162C27.7492 23.2762 27.5292 23.9462 27.0892 24.4262C26.6492 24.9062 25.9792 25.1795 25.0792 25.2462V25.6862L24.4392 25.2562C25.2126 25.3095 25.8126 25.4695 26.2392 25.7362C26.6659 26.0029 26.9792 26.3762 27.1792 26.8562C27.3859 27.3295 27.5359 27.9195 27.6292 28.6262L27.9992 31.4062H24.7892ZM17.6092 31.4062V18.6262H20.6492V25.6162L20.6692 26.7762V31.4062H17.6092ZM34.8519 31.7162C33.0252 31.7162 31.6719 31.2762 30.7919 30.3962C29.9186 29.5095 29.4819 28.2129 29.4819 26.5062V18.6262H32.6219V26.5662C32.6219 27.3929 32.7986 28.0195 33.1519 28.4462C33.5119 28.8662 34.0786 29.0762 34.8519 29.0762C35.6319 29.0762 36.1986 28.8662 36.5519 28.4462C36.9052 28.0195 37.0819 27.3929 37.0819 26.5662V18.6262H40.2219V26.5062C40.2219 28.2129 39.7852 29.5095 38.9119 30.3962C38.0452 31.2762 36.6919 31.7162 34.8519 31.7162ZM44.5334 27.7762V25.2462H47.5634C48.2167 25.2462 48.6867 25.1029 48.9734 24.8162C49.2667 24.5229 49.4134 24.0862 49.4134 23.5062V22.8862C49.4134 22.2995 49.2702 21.8629 48.9834 21.5762C48.6967 21.2895 48.2267 21.1462 47.5734 21.1462H44.5234V18.6262H47.8034C49.4302 18.6262 50.6202 18.9862 51.3734 19.7062C52.1334 20.4262 52.5134 21.4562 52.5134 22.7962V23.6062C52.5134 24.9529 52.1334 25.9862 51.3734 26.7062C50.6202 27.4195 49.4334 27.7762 47.8134 27.7762H44.5334ZM42.4334 31.4062V18.6262H45.4934V25.9562L45.5134 27.3762V31.4062H42.4334ZM54.2498 31.4062V18.6262H57.3098V31.4062H54.2498ZM55.1598 31.4062V28.7962H63.1998V31.4062H55.1598ZM56.0398 26.1762V23.6662H62.9598V26.1762H56.0398ZM55.1498 21.2062V18.6262H63.1098V21.2062H55.1498ZM65.1678 31.4062V18.6262H68.2278V31.4062H65.1678ZM66.0778 31.4062V28.7962H74.1178V31.4062H66.0778ZM66.9578 26.1762V23.6662H73.8778V26.1762H66.9578ZM66.0678 21.2062V18.6262H74.0278V21.2062H66.0678Z" fill="white"/>
<path d="M112.607 30.3125L116.117 23.3325V23.9925L112.737 17.5325H116.057L118.307 22.0725H118.477L120.727 17.5325H124.047L120.657 23.9925V23.3325L124.167 30.3125H120.777L118.477 25.4425H118.307L115.997 30.3125H112.607ZM127.668 26.6825V24.1525H130.698C131.352 24.1525 131.822 24.0092 132.108 23.7225C132.402 23.4292 132.548 22.9925 132.548 22.4125V21.7925C132.548 21.2058 132.405 20.7692 132.118 20.4825C131.832 20.1958 131.362 20.0525 130.708 20.0525H127.658V17.5325H130.938C132.565 17.5325 133.755 17.8925 134.508 18.6125C135.268 19.3325 135.648 20.3625 135.648 21.7025V22.5125C135.648 23.8592 135.268 24.8925 134.508 25.6125C133.755 26.3258 132.568 26.6825 130.948 26.6825H127.668ZM125.568 30.3125V17.5325H128.628V24.8625L128.648 26.2825V30.3125H125.568ZM137.385 30.3125V17.5325H140.445V30.3125H137.385ZM138.295 30.3125V27.7025H146.335V30.3125H138.295ZM139.175 25.0825V22.5725H146.095V25.0825H139.175ZM138.285 20.1125V17.5325H146.245V20.1125H138.285ZM155.483 30.3125L155.233 27.9025C155.193 27.4758 155.109 27.1292 154.983 26.8625C154.856 26.5892 154.663 26.3892 154.403 26.2625C154.143 26.1292 153.796 26.0625 153.363 26.0625L150.473 26.0525V23.6625L153.483 23.6525C154.136 23.6525 154.606 23.5092 154.893 23.2225C155.179 22.9358 155.323 22.5058 155.323 21.9325V21.7325C155.323 21.1658 155.179 20.7425 154.893 20.4625C154.613 20.1758 154.139 20.0325 153.473 20.0325H150.453V17.5325H153.923C155.489 17.5325 156.633 17.8358 157.353 18.4425C158.079 19.0492 158.443 19.9225 158.443 21.0625V21.3225C158.443 22.1825 158.223 22.8525 157.783 23.3325C157.343 23.8125 156.673 24.0858 155.773 24.1525V24.5925L155.133 24.1625C155.906 24.2158 156.506 24.3758 156.933 24.6425C157.359 24.9092 157.673 25.2825 157.873 25.7625C158.079 26.2358 158.229 26.8258 158.323 27.5325L158.693 30.3125H155.483ZM148.303 30.3125V17.5325H151.343V24.5225L151.363 25.6825V30.3125H148.303ZM163.087 30.3125V18.1325H166.217V30.3125H163.087ZM159.557 20.1425V17.5325H169.737V20.1425H159.557Z" fill="white"/>
</svg>
