<svg width="187" height="50" viewBox="0 0 987 320" fill="none" xmlns="http://www.w3.org/2000/svg">
<path d="M461.5 107L383.5 76.5L457.5 183L639 0L461.5 107Z" fill="#043A7A"/>
<path d="M612.5 248L537 146.5L365 320L537 219.5L612.5 248Z" fill="#043A7A"/>

<path class="path" d="M53.751 201L52.151 185.576C51.895 182.845 51.3617 180.627 50.551 178.92C49.7403 177.171 48.503 175.891 46.839 175.08C45.175 174.227 42.9563 173.8 40.183 173.8L21.687 173.736V158.44L40.951 158.376C45.1323 158.376 48.1403 157.459 49.975 155.624C51.8097 153.789 52.727 151.037 52.727 147.368V146.088C52.727 142.461 51.8097 139.752 49.975 137.96C48.183 136.125 45.1537 135.208 40.887 135.208H21.559V119.208H43.767C53.7937 119.208 61.111 121.149 65.719 125.032C70.3697 128.915 72.695 134.504 72.695 141.8V143.464C72.695 148.968 71.287 153.256 68.471 156.328C65.655 159.4 61.367 161.149 55.607 161.576V164.392L51.511 161.64C56.4603 161.981 60.3003 163.005 63.031 164.712C65.7617 166.419 67.767 168.808 69.047 171.88C70.3697 174.909 71.3297 178.685 71.927 183.208L74.295 201H53.751ZM7.799 201V119.208H27.255V163.944L27.383 171.368V201H7.799ZM118.152 202.984C106.461 202.984 97.8 200.168 92.168 194.536C86.5787 188.861 83.784 180.563 83.784 169.64V119.208H103.88V170.024C103.88 175.315 105.011 179.325 107.272 182.056C109.576 184.744 113.203 186.088 118.152 186.088C123.144 186.088 126.771 184.744 129.032 182.056C131.293 179.325 132.424 175.315 132.424 170.024V119.208H152.52V169.64C152.52 180.563 149.725 188.861 144.136 194.536C138.589 200.168 129.928 202.984 118.152 202.984ZM180.114 177.768V161.576H199.506C203.687 161.576 206.695 160.659 208.53 158.824C210.407 156.947 211.346 154.152 211.346 150.44V146.472C211.346 142.717 210.429 139.923 208.594 138.088C206.759 136.253 203.751 135.336 199.57 135.336H180.05V119.208H201.042C211.453 119.208 219.069 121.512 223.89 126.12C228.754 130.728 231.186 137.32 231.186 145.896V151.08C231.186 159.699 228.754 166.312 223.89 170.92C219.069 175.485 211.474 177.768 201.106 177.768H180.114ZM166.674 201V119.208H186.258V166.12L186.386 175.208V201H166.674ZM242.299 201V119.208H261.883V201H242.299ZM248.123 201V184.296H299.579V201H248.123ZM253.755 167.528V151.464H298.043V167.528H253.755ZM248.059 135.72V119.208H299.003V135.72H248.059ZM312.174 201V119.208H331.758V201H312.174ZM317.998 201V184.296H369.454V201H317.998ZM323.63 167.528V151.464H367.918V167.528H323.63ZM317.934 135.72V119.208H368.878V135.72H317.934Z" fill="#043A7A" stroke-dashoffset="300"/>
<path class="path" d="M615.785 194L638.249 149.328V153.552L616.617 112.208H637.865L652.265 141.264H653.353L667.753 112.208H689.001L667.305 153.552V149.328L689.769 194H668.073L653.353 162.832H652.265L637.481 194H615.785ZM712.177 170.768V154.576H731.569C735.75 154.576 738.758 153.659 740.593 151.824C742.47 149.947 743.409 147.152 743.409 143.44V139.472C743.409 135.717 742.491 132.923 740.657 131.088C738.822 129.253 735.814 128.336 731.633 128.336H712.113V112.208H733.105C743.515 112.208 751.131 114.512 755.952 119.12C760.817 123.728 763.249 130.32 763.249 138.896V144.08C763.249 152.699 760.817 159.312 755.952 163.92C751.131 168.485 743.537 170.768 733.169 170.768H712.177ZM698.737 194V112.208H718.321V159.12L718.449 168.208V194H698.737ZM774.362 194V112.208H793.946V194H774.362ZM780.186 194V177.296H831.642V194H780.186ZM785.818 160.528V144.464H830.106V160.528H785.818ZM780.122 128.72V112.208H831.066V128.72H780.122ZM890.189 194L888.589 178.576C888.333 175.845 887.799 173.627 886.989 171.92C886.178 170.171 884.941 168.891 883.277 168.08C881.613 167.227 879.394 166.8 876.621 166.8L858.125 166.736V151.44L877.389 151.376C881.57 151.376 884.578 150.459 886.413 148.624C888.247 146.789 889.165 144.037 889.165 140.368V139.088C889.165 135.461 888.247 132.752 886.413 130.96C884.621 129.125 881.591 128.208 877.325 128.208H857.997V112.208H880.205C890.231 112.208 897.549 114.149 902.157 118.032C906.807 121.915 909.132 127.504 909.132 134.8V136.464C909.132 141.968 907.725 146.256 904.909 149.328C902.093 152.4 897.805 154.149 892.045 154.576V157.392L887.949 154.64C892.898 154.981 896.738 156.005 899.469 157.712C902.199 159.419 904.205 161.808 905.485 164.88C906.807 167.909 907.767 171.685 908.365 176.208L910.733 194H890.189ZM844.237 194V112.208H863.693V156.944L863.821 164.368V194H844.237ZM938.858 194V116.048H958.89V194H938.858ZM916.266 128.912V112.208H981.418V128.912H916.266Z" fill="#043A7A" stroke-dashoffset="500"/>
</svg>
