<svg width="168" height="30" viewBox="0 0 168 30" fill="none" xmlns="http://www.w3.org/2000/svg">
<path d="M85.2381 0H0V29.8333H85.2381V0Z" fill="#374850"/>
<path d="M17.6614 5.66833V8.04647H12.9307V23.4405H10.0156V8.04647H5.25928V5.66833H17.6614ZM27.4925 8.0209V13.2375H33.6296V15.6156H27.4925V21.0623H34.3967V23.4405H24.5773V5.64276H34.3967V8.0209H27.4925ZM40.9791 14.516C40.9791 12.7772 41.3798 11.2173 42.181 9.83647C42.9993 8.45562 44.0989 7.38162 45.4797 6.61447C46.8776 5.83028 48.4034 5.43819 50.057 5.43819C51.9493 5.43819 53.6285 5.907 55.0946 6.84461C56.5777 7.76519 57.6517 9.07785 58.3166 10.7826H54.8133C54.353 9.845 53.7137 9.14604 52.8954 8.68576C52.0771 8.22547 51.131 7.99533 50.057 7.99533C48.8807 7.99533 47.8323 8.25957 46.9117 8.78804C45.9911 9.31652 45.2666 10.0751 44.7381 11.0639C44.2267 12.0527 43.971 13.2034 43.971 14.516C43.971 15.8287 44.2267 16.9794 44.7381 17.9682C45.2666 18.9569 45.9911 19.7241 46.9117 20.2696C47.8323 20.7981 48.8807 21.0623 50.057 21.0623C51.131 21.0623 52.0771 20.8322 52.8954 20.3719C53.7137 19.9116 54.353 19.2127 54.8133 18.275H58.3166C57.6517 19.9798 56.5777 21.2925 55.0946 22.213C53.6285 23.1336 51.9493 23.5939 50.057 23.5939C48.3863 23.5939 46.8606 23.2103 45.4797 22.4432C44.0989 21.659 42.9993 20.5765 42.181 19.1956C41.3798 17.8148 40.9791 16.2549 40.9791 14.516ZM79.8845 5.66833V23.4405H76.9693V15.6668H68.6075V23.4405H65.6923V5.66833H68.6075V13.2886H76.9693V5.66833H79.8845Z" fill="white"/>
<path d="M106.427 6.50941L106.614 10.4799H106.14C106.048 9.78074 105.924 9.28125 105.765 8.98164C105.507 8.49887 105.162 8.14503 104.729 7.92032C104.304 7.68719 103.743 7.57073 103.043 7.57073H100.659V20.5062C100.659 21.5468 100.771 22.196 100.996 22.454C101.312 22.8036 101.799 22.9785 102.457 22.9785H103.043V23.4405H95.8639V22.9785H96.4632C97.179 22.9785 97.6868 22.7621 97.9864 22.3292C98.1696 22.0628 98.2612 21.4552 98.2612 20.5062V7.57073H96.226C95.4352 7.57073 94.8733 7.62901 94.5404 7.74547C94.1075 7.90369 93.7371 8.20746 93.4291 8.65699C93.1211 9.10651 92.938 9.71415 92.8797 10.4799H92.4053L92.6051 6.50941H106.427ZM120.878 17.7718H114.324L113.175 20.4438C112.892 21.1014 112.751 21.5925 112.751 21.9172C112.751 22.1752 112.871 22.4041 113.112 22.6039C113.363 22.7953 113.895 22.9202 114.71 22.9785V23.4405H109.379V22.9785C110.087 22.8536 110.544 22.6913 110.753 22.4916C111.177 22.092 111.647 21.2804 112.164 20.0567L118.12 6.12231H118.557L124.45 20.2065C124.924 21.3386 125.353 22.0754 125.736 22.4166C126.127 22.7496 126.668 22.9368 127.359 22.9785V23.4405H120.679V22.9785C121.354 22.9452 121.808 22.8328 122.04 22.6414C122.282 22.4499 122.402 22.2169 122.402 21.9422C122.402 21.5759 122.236 20.9973 121.902 20.2065L120.878 17.7718ZM120.529 16.8478L117.657 10.0055L114.71 16.8478H120.529ZM143.347 6.12231V11.9783H142.885C142.735 10.8545 142.465 9.95974 142.073 9.29382C141.69 8.6279 141.141 8.09932 140.425 7.70807C139.71 7.31683 138.968 7.12121 138.203 7.12121C137.337 7.12121 136.621 7.38758 136.055 7.92032C135.489 8.44474 135.206 9.04407 135.206 9.71831C135.206 10.2344 135.385 10.7047 135.743 11.1292C136.259 11.7535 137.487 12.5859 139.426 13.6265C141.007 14.4754 142.086 15.1289 142.66 15.5867C143.243 16.0363 143.688 16.569 143.996 17.1849C144.312 17.8009 144.47 18.446 144.47 19.1203C144.47 20.4022 143.972 21.5093 142.972 22.4416C141.981 23.3656 140.704 23.8276 139.139 23.8276C138.647 23.8276 138.186 23.79 137.753 23.7151C137.495 23.6736 136.959 23.5237 136.142 23.2656C135.335 22.9993 134.823 22.8661 134.607 22.8661C134.398 22.8661 134.232 22.9285 134.107 23.0534C133.99 23.1783 133.903 23.4363 133.845 23.8276H133.383V18.0216H133.845C134.062 19.2368 134.352 20.1484 134.719 20.756C135.085 21.3553 135.643 21.8547 136.392 22.2543C137.149 22.6538 137.978 22.8536 138.876 22.8536C139.917 22.8536 140.737 22.5789 141.337 22.0296C141.944 21.4802 142.248 20.8309 142.248 20.0818C142.248 19.6655 142.131 19.2452 141.898 18.8207C141.673 18.3961 141.32 18.0007 140.837 17.6345C140.512 17.3847 139.625 16.8561 138.177 16.0487C136.73 15.233 135.697 14.5837 135.081 14.1009C134.474 13.6181 134.011 13.0853 133.695 12.5027C133.379 11.92 133.221 11.279 133.221 10.5799C133.221 9.36457 133.687 8.31987 134.619 7.44586C135.551 6.56354 136.738 6.12231 138.177 6.12231C139.077 6.12231 140.029 6.3429 141.037 6.78409C141.503 6.99218 141.832 7.09628 142.023 7.09628C142.24 7.09628 142.415 7.03384 142.548 6.90897C142.689 6.77578 142.802 6.51357 142.885 6.12231H143.347ZM161.52 17.7718H154.964L153.815 20.4438C153.532 21.1014 153.391 21.5925 153.391 21.9172C153.391 22.1752 153.512 22.4041 153.754 22.6039C154.003 22.7953 154.536 22.9202 155.352 22.9785V23.4405H150.02V22.9785C150.728 22.8536 151.185 22.6913 151.394 22.4916C151.818 22.092 152.289 21.2804 152.804 20.0567L158.76 6.12231H159.197L165.09 20.2065C165.564 21.3386 165.994 22.0754 166.376 22.4166C166.767 22.7496 167.309 22.9368 168 22.9785V23.4405H161.32V22.9785C161.994 22.9452 162.448 22.8328 162.68 22.6414C162.922 22.4499 163.042 22.2169 163.042 21.9422C163.042 21.5759 162.876 20.9973 162.544 20.2065L161.52 17.7718ZM161.169 16.8478L158.298 10.0055L155.352 16.8478H161.169Z" fill="#0088CC"/>
</svg>
