<svg width="65" height="13" viewBox="0 0 65 13" fill="none" xmlns="http://www.w3.org/2000/svg">
<path d="M8.45881 4.32812H6.59233C6.55824 4.08665 6.48864 3.87216 6.38352 3.68466C6.27841 3.49432 6.14347 3.33239 5.97869 3.19886C5.81392 3.06534 5.62358 2.96307 5.40767 2.89205C5.1946 2.82102 4.96307 2.78551 4.71307 2.78551C4.26136 2.78551 3.8679 2.89773 3.53267 3.12216C3.19744 3.34375 2.9375 3.66761 2.75284 4.09375C2.56818 4.51705 2.47585 5.03125 2.47585 5.63636C2.47585 6.25852 2.56818 6.78125 2.75284 7.20455C2.94034 7.62784 3.2017 7.94744 3.53693 8.16335C3.87216 8.37926 4.25994 8.48722 4.70028 8.48722C4.94744 8.48722 5.17614 8.45455 5.38636 8.3892C5.59943 8.32386 5.78835 8.22869 5.95312 8.10369C6.1179 7.97585 6.25426 7.82102 6.36222 7.6392C6.47301 7.45739 6.54972 7.25 6.59233 7.01705L8.45881 7.02557C8.41051 7.42614 8.28977 7.8125 8.09659 8.18466C7.90625 8.55398 7.64915 8.88494 7.32528 9.17756C7.00426 9.46733 6.62074 9.69744 6.17472 9.8679C5.73153 10.0355 5.23011 10.1193 4.67045 10.1193C3.89205 10.1193 3.19602 9.94318 2.58239 9.59091C1.97159 9.23864 1.48864 8.72869 1.13352 8.06108C0.78125 7.39347 0.605114 6.58523 0.605114 5.63636C0.605114 4.68466 0.784091 3.875 1.14205 3.20739C1.5 2.53977 1.9858 2.03125 2.59943 1.68182C3.21307 1.32955 3.90341 1.15341 4.67045 1.15341C5.17614 1.15341 5.64489 1.22443 6.0767 1.36648C6.51136 1.50852 6.89631 1.71591 7.23153 1.98864C7.56676 2.25852 7.83949 2.58949 8.04972 2.98153C8.26278 3.37358 8.39915 3.82244 8.45881 4.32812ZM12.7053 10.1278C12.0433 10.1278 11.4709 9.98722 10.9879 9.70597C10.5078 9.42187 10.1371 9.02699 9.87571 8.52131C9.61435 8.01278 9.48366 7.4233 9.48366 6.75284C9.48366 6.0767 9.61435 5.4858 9.87571 4.98011C10.1371 4.47159 10.5078 4.0767 10.9879 3.79545C11.4709 3.51136 12.0433 3.36932 12.7053 3.36932C13.3672 3.36932 13.9382 3.51136 14.4183 3.79545C14.9013 4.0767 15.2734 4.47159 15.5348 4.98011C15.7962 5.4858 15.9268 6.0767 15.9268 6.75284C15.9268 7.4233 15.7962 8.01278 15.5348 8.52131C15.2734 9.02699 14.9013 9.42187 14.4183 9.70597C13.9382 9.98722 13.3672 10.1278 12.7053 10.1278ZM12.7138 8.72159C13.0149 8.72159 13.2663 8.63636 13.468 8.46591C13.6697 8.29261 13.8217 8.05682 13.924 7.75852C14.0291 7.46023 14.0817 7.12074 14.0817 6.74006C14.0817 6.35938 14.0291 6.01989 13.924 5.72159C13.8217 5.4233 13.6697 5.1875 13.468 5.0142C13.2663 4.84091 13.0149 4.75426 12.7138 4.75426C12.4098 4.75426 12.1541 4.84091 11.9467 5.0142C11.7422 5.1875 11.5874 5.4233 11.4822 5.72159C11.38 6.01989 11.3288 6.35938 11.3288 6.74006C11.3288 7.12074 11.38 7.46023 11.4822 7.75852C11.5874 8.05682 11.7422 8.29261 11.9467 8.46591C12.1541 8.63636 12.4098 8.72159 12.7138 8.72159Z" fill="#FF6A58"/>
<path d="M18.4964 10L15.9993 1.27273H18.0149L19.4595 7.33665H19.532L21.1257 1.27273H22.8516L24.4411 7.34943H24.5178L25.9624 1.27273H27.978L25.4808 10H23.6825L22.0206 4.29403H21.9524L20.2947 10H18.4964ZM31.1857 10.1278C30.5238 10.1278 29.9513 9.98722 29.4684 9.70597C28.9883 9.42187 28.6175 9.02699 28.3562 8.52131C28.0948 8.01278 27.9641 7.4233 27.9641 6.75284C27.9641 6.0767 28.0948 5.4858 28.3562 4.98011C28.6175 4.47159 28.9883 4.0767 29.4684 3.79545C29.9513 3.51136 30.5238 3.36932 31.1857 3.36932C31.8477 3.36932 32.4187 3.51136 32.8988 3.79545C33.3817 4.0767 33.7539 4.47159 34.0153 4.98011C34.2766 5.4858 34.4073 6.0767 34.4073 6.75284C34.4073 7.4233 34.2766 8.01278 34.0153 8.52131C33.7539 9.02699 33.3817 9.42187 32.8988 9.70597C32.4187 9.98722 31.8477 10.1278 31.1857 10.1278ZM31.1942 8.72159C31.4954 8.72159 31.7468 8.63636 31.9485 8.46591C32.1502 8.29261 32.3022 8.05682 32.4045 7.75852C32.5096 7.46023 32.5621 7.12074 32.5621 6.74006C32.5621 6.35938 32.5096 6.01989 32.4045 5.72159C32.3022 5.4233 32.1502 5.1875 31.9485 5.0142C31.7468 4.84091 31.4954 4.75426 31.1942 4.75426C30.8903 4.75426 30.6346 4.84091 30.4272 5.0142C30.2227 5.1875 30.0678 5.4233 29.9627 5.72159C29.8604 6.01989 29.8093 6.35938 29.8093 6.74006C29.8093 7.12074 29.8604 7.46023 29.9627 7.75852C30.0678 8.05682 30.2227 8.29261 30.4272 8.46591C30.6346 8.63636 30.8903 8.72159 31.1942 8.72159ZM35.5877 10V3.45455H37.3477V4.59659H37.4158C37.5352 4.19034 37.7354 3.88352 38.0167 3.67614C38.2979 3.46591 38.6218 3.3608 38.9883 3.3608C39.0792 3.3608 39.1772 3.36648 39.2823 3.37784C39.3874 3.3892 39.4798 3.40483 39.5593 3.42472V5.03551C39.4741 5.00994 39.3562 4.98722 39.2056 4.96733C39.055 4.94744 38.9173 4.9375 38.7923 4.9375C38.5252 4.9375 38.2866 4.99574 38.0763 5.11222C37.869 5.22585 37.7042 5.38494 37.582 5.58949C37.4627 5.79403 37.4031 6.02983 37.4031 6.29688V10H35.5877ZM42.1428 8.11648L42.147 5.93892H42.4112L44.5078 3.45455H46.5916L43.7749 6.74432H43.3445L42.1428 8.11648ZM40.4979 10V1.27273H42.3132V10H40.4979ZM44.5888 10L42.6626 7.14915L43.8729 5.86648L46.7152 10H44.5888ZM47.4822 10V3.45455H49.2976V10H47.4822ZM48.3942 2.6108C48.1243 2.6108 47.8928 2.52131 47.6996 2.34233C47.5092 2.16051 47.4141 1.94318 47.4141 1.69034C47.4141 1.44034 47.5092 1.22585 47.6996 1.04688C47.8928 0.865057 48.1243 0.774147 48.3942 0.774147C48.6641 0.774147 48.8942 0.865057 49.0845 1.04688C49.2777 1.22585 49.3743 1.44034 49.3743 1.69034C49.3743 1.94318 49.2777 2.16051 49.0845 2.34233C48.8942 2.52131 48.6641 2.6108 48.3942 2.6108ZM52.5671 6.21591V10H50.7518V3.45455H52.4819V4.60938H52.5586C52.7035 4.22869 52.9464 3.92756 53.2873 3.70597C53.6282 3.48153 54.0415 3.36932 54.5273 3.36932C54.9819 3.36932 55.3782 3.46875 55.7163 3.66761C56.0543 3.86648 56.3171 4.15057 56.5046 4.51989C56.6921 4.88636 56.7859 5.32386 56.7859 5.83239V10H54.9705V6.15625C54.9734 5.75568 54.8711 5.44318 54.6637 5.21875C54.4563 4.99148 54.1708 4.87784 53.8072 4.87784C53.5629 4.87784 53.3469 4.9304 53.1594 5.03551C52.9748 5.14062 52.8299 5.29403 52.7248 5.49574C52.6225 5.6946 52.57 5.93466 52.5671 6.21591ZM61.1655 12.5909C60.5774 12.5909 60.0732 12.5099 59.6527 12.348C59.2351 12.1889 58.9027 11.9716 58.6555 11.696C58.4084 11.4205 58.2479 11.1108 58.174 10.767L59.853 10.5412C59.9041 10.6719 59.9851 10.794 60.0959 10.9077C60.2067 11.0213 60.353 11.1122 60.5348 11.1804C60.7195 11.2514 60.9439 11.2869 61.2081 11.2869C61.603 11.2869 61.9283 11.1903 62.1839 10.9972C62.4425 10.8068 62.5717 10.4872 62.5717 10.0384V8.84091H62.495C62.4155 9.02273 62.2962 9.1946 62.1371 9.35653C61.978 9.51847 61.7734 9.65057 61.5234 9.75284C61.2734 9.85511 60.9751 9.90625 60.6286 9.90625C60.1371 9.90625 59.6896 9.79261 59.2862 9.56534C58.8857 9.33523 58.5661 8.98437 58.3274 8.51278C58.0916 8.03835 57.9737 7.43892 57.9737 6.71449C57.9737 5.97301 58.0945 5.35369 58.3359 4.85653C58.5774 4.35937 58.8984 3.98722 59.299 3.74006C59.7024 3.4929 60.1442 3.36932 60.6243 3.36932C60.9908 3.36932 61.2976 3.43182 61.5447 3.55682C61.7919 3.67898 61.9908 3.83239 62.1413 4.01705C62.2947 4.19886 62.4126 4.37784 62.495 4.55398H62.5632V3.45455H64.3658V10.0639C64.3658 10.6207 64.2294 11.0866 63.9567 11.4616C63.6839 11.8366 63.3061 12.1179 62.8232 12.3054C62.343 12.4957 61.7905 12.5909 61.1655 12.5909ZM61.2038 8.54261C61.4964 8.54261 61.7436 8.47017 61.9453 8.32528C62.1499 8.17756 62.3061 7.96733 62.4141 7.6946C62.5249 7.41903 62.5803 7.08949 62.5803 6.70597C62.5803 6.32244 62.5263 5.99006 62.4183 5.70881C62.3104 5.42472 62.1541 5.20455 61.9496 5.0483C61.745 4.89205 61.4964 4.81392 61.2038 4.81392C60.9055 4.81392 60.6541 4.89489 60.4496 5.05682C60.245 5.21591 60.0902 5.4375 59.9851 5.72159C59.88 6.00568 59.8274 6.33381 59.8274 6.70597C59.8274 7.08381 59.88 7.41051 59.9851 7.68608C60.093 7.95881 60.2479 8.17045 60.4496 8.32102C60.6541 8.46875 60.9055 8.54261 61.2038 8.54261Z" fill="black"/>
</svg>
